<svg xmlns="http://www.w3.org/2000/svg" width="16" height="19.929" viewBox="0 0 16 19.929">
  <path id="Icon_awesome-angle-double-up" data-name="Icon awesome-angle-double-up" d="M8.846,13.933l6.8,6.8a1.2,1.2,0,0,1,0,1.694l-1.13,1.13a1.2,1.2,0,0,1-1.694,0L8,18.741,3.178,23.56a1.2,1.2,0,0,1-1.694,0L.349,22.43a1.2,1.2,0,0,1,0-1.694l6.8-6.8A1.2,1.2,0,0,1,8.846,13.933Zm-1.7-9.6-6.8,6.8a1.2,1.2,0,0,0,0,1.694l1.13,1.13a1.2,1.2,0,0,0,1.694,0L7.991,9.139l4.818,4.818a1.2,1.2,0,0,0,1.694,0l1.13-1.13a1.2,1.2,0,0,0,0-1.694l-6.8-6.8a1.189,1.189,0,0,0-1.689,0Z" transform="translate(0.004 -3.983)" fill="#239b00"/>
</svg>
