<svg xmlns="http://www.w3.org/2000/svg" width="16" height="19.93" viewBox="0 0 16 19.93">
  <path id="Icon_awesome-angle-double-down" data-name="Icon awesome-angle-double-down" d="M8.846,13.958l6.8-6.8a1.2,1.2,0,0,0,0-1.694l-1.13-1.13a1.2,1.2,0,0,0-1.694,0L8,9.15,3.178,4.331a1.2,1.2,0,0,0-1.694,0L.349,5.461a1.2,1.2,0,0,0,0,1.694l6.8,6.8a1.2,1.2,0,0,0,1.7,0Zm-1.7,9.6-6.8-6.8a1.2,1.2,0,0,1,0-1.694l1.13-1.13a1.2,1.2,0,0,1,1.694,0l4.821,4.818,4.818-4.818a1.2,1.2,0,0,1,1.694,0l1.13,1.13a1.2,1.2,0,0,1,0,1.694l-6.8,6.8a1.189,1.189,0,0,1-1.689,0Z" transform="translate(0.004 -3.981)" fill="#e81111"/>
</svg>
