<svg xmlns="http://www.w3.org/2000/svg" xmlns:xlink="http://www.w3.org/1999/xlink" width="52" height="52" viewBox="0 0 52 52">
  <defs>
    <clipPath id="clip-path">
      <rect id="Rectangle_1968" data-name="Rectangle 1968" width="52" height="52" transform="translate(-0.13 -0.53)" fill="none" stroke="#707070" stroke-width="1"/>
    </clipPath>
    <clipPath id="clip-path-2">
      <rect id="Rectangle_1967" data-name="Rectangle 1967" width="52" height="52" fill="none" stroke="#707070" stroke-width="1"/>
    </clipPath>
  </defs>
  <g id="earphone" transform="translate(0.13 0.53)" clip-path="url(#clip-path)">
    <g id="Group_3063" data-name="Group 3063" transform="translate(-0.13 -0.53)" clip-path="url(#clip-path-2)">
      <path id="Path_11428" data-name="Path 11428" d="M10.107,28.445a9.553,9.553,0,0,1-2.648-18.7,10.51,10.51,0,0,1,2.648-.387Z" transform="translate(0.546 9.705)" fill="none" stroke="#888" stroke-miterlimit="10" stroke-width="2"/>
      <path id="Path_11429" data-name="Path 11429" d="M20.29,28.486A9.593,9.593,0,0,0,23.1,9.707a11.467,11.467,0,0,0-2.729-.387Z" transform="translate(20.895 9.663)" fill="none" stroke="#888" stroke-miterlimit="10" stroke-width="2"/>
      <path id="Path_11430" data-name="Path 11430" d="M4.08,18.265a17.8,17.8,0,0,1,35.583,0" transform="translate(4.088 1.105)" fill="none" stroke="#888" stroke-miterlimit="10" stroke-width="2"/>
      <path id="Path_11431" data-name="Path 11431" d="M26.815,18.65A10.815,10.815,0,0,1,16,29.547" transform="translate(16.447 19.337)" fill="none" stroke="#888" stroke-miterlimit="10" stroke-width="2"/>
      <path id="Path_11432" data-name="Path 11432" d="M12.5,23H19.8a1.854,1.854,0,0,1,0,3.687H12.5a1.813,1.813,0,0,1-1.854-1.853A1.854,1.854,0,0,1,12.5,23Z" transform="translate(10.899 23.847)" fill="none" stroke="#888" stroke-miterlimit="10" stroke-width="2"/>
    </g>
  </g>
</svg>
