<svg xmlns="http://www.w3.org/2000/svg" width="100%" height="100%" viewBox="0 0 460.68 164.31">
  <defs>
    <style>
      .a, .c {
        fill: #e2ebfd;
      }

      .b {
        fill: #fff;
      }

      .c {
        opacity: 0.6;
        isolation: isolate;
      }

      .d {
        fill: #dde8fd;
      }

      .e {
        fill: #93b3f4;
      }

      .f {
        fill: #d3e0fc;
      }

      .g {
        fill: #3a49cd;
      }

      .h {
        fill: #060632;
      }

      .i {
        fill: #bed2fa;
      }

      .j {
        fill: #6d89cf;
      }

      .k {
        fill: #0b0754;
      }

      .l {
        fill: #fda6a4;
      }

      .m {
        fill: #fc9290;
      }

      .n {
        fill: #9e332e;
      }

      .o {
        fill: #030231;
      }

      .p {
        fill: #a83f3f;
      }

      .q {
        fill: #b05050;
      }

      .r {
        fill: #ed6966;
      }

      .s {
        fill: #3662c1;
      }

      .t {
        fill: #efa2a2;
      }

      .u {
        fill: #3a65c2;
      }

      .v {
        fill: #fa7269;
      }
    </style>
  </defs>
  <g>
    <path class="a" d="M144.94,50V163.83l-136.89.48c.34-5-22.19-70.58,6.69-108.06,41-53.2,76-10.18,122.24-6.44A78.29,78.29,0,0,0,144.94,50Z"/>
    <path class="b" d="M459.48,161.63c-.18,1.42-15-.23-15.22,1.16l-92.54.33H144.94V50a73,73,0,0,0,7.95-.64,77.22,77.22,0,0,0,28.68-10.23C286-21.36,371-4.93,418.68,42.34a142.13,142.13,0,0,1,40.8,119.29Z"/>
    <path class="c" d="M460.63,143.72a142.62,142.62,0,0,1-1.15,18.71c-.18,1.42-15-.23-15.22,1.17l-92.54.32H144.94v-.09l206.78-.71,92.54-.33c.21-1.4,15,.26,15.22-1.16A143,143,0,0,0,460.63,143.72Z"/>
    <path class="d" d="M419.94,76.64v86.48h-267V87.87h20.47V67.33h20.47V95.07H210.4v-6.2h28.87V99.35h12.57V75.82h33.63V35.46h26.59V57h6.06V39h26.6V66.73h24.1V49.68h25.77V66.73h4.81v9.91Z"/>
    <g>
      <path class="e" d="M100.88,57.34h2.76a12.47,12.47,0,0,1,12.47,12.47h0v1.94a12.47,12.47,0,0,1-12.47,12.47h-2.76A12.47,12.47,0,0,1,88.4,71.75V69.81A12.47,12.47,0,0,1,100.88,57.34Z"/>
      <path class="a" d="M101,58.5h2.52a11.39,11.39,0,0,1,11.39,11.39v1.77a11.4,11.4,0,0,1-11.39,11.4H101a11.39,11.39,0,0,1-11.4-11.4h0V69.89A11.39,11.39,0,0,1,101,58.5Z"/>
      <g>
        <g>
          <path class="e" d="M101.69,61a.57.57,0,1,1,.57.58h0A.57.57,0,0,1,101.69,61Z"/>
          <path class="e" d="M106.32,61.77a.57.57,0,0,1,.78-.23.59.59,0,0,1,.22.78.57.57,0,0,1-.78.23.57.57,0,0,1-.22-.78Z"/>
          <path class="e" d="M110.28,64.92a.57.57,0,1,1,.63,1,.57.57,0,0,1-.8-.17.58.58,0,0,1,.17-.79Z"/>
          <path class="e" d="M112.25,69.8a.56.56,0,0,1,.57.57.57.57,0,1,1-1.14,0h0A.56.56,0,0,1,112.25,69.8Z"/>
          <path class="e" d="M111.25,75.46a.58.58,0,0,1,0,.81.57.57,0,0,1-.81-.81.58.58,0,0,1,.81,0Z"/>
          <path class="e" d="M107.65,79.07a.59.59,0,0,1,0,.82.58.58,0,0,1-.81,0,.57.57,0,0,1,0-.82.58.58,0,0,1,.81,0Z"/>
          <path class="e" d="M101.69,80.94a.57.57,0,1,1,.57.57h0A.57.57,0,0,1,101.69,80.94Z"/>
        </g>
        <g>
          <path class="e" d="M98.18,61.77a.57.57,0,1,0-.22.78.57.57,0,0,0,.22-.78Z"/>
          <path class="e" d="M94.22,64.92a.57.57,0,1,0-.63,1,.57.57,0,0,0,.8-.17.58.58,0,0,0-.17-.79Z"/>
          <path class="e" d="M92.25,69.8a.56.56,0,0,0-.57.57.57.57,0,1,0,1.14,0h0A.56.56,0,0,0,92.25,69.8Z"/>
          <path class="e" d="M93.25,75.46a.58.58,0,0,0,0,.81.57.57,0,0,0,.81-.81.58.58,0,0,0-.81,0Z"/>
          <path class="e" d="M96.86,79.07a.57.57,0,0,0,0,.82.58.58,0,0,0,.81,0,.59.59,0,0,0,0-.82.58.58,0,0,0-.81,0Z"/>
        </g>
      </g>
      <g>
        <path class="e" d="M102.1,70.37a.58.58,0,1,1,.58.58h0A.58.58,0,0,1,102.1,70.37Z"/>
        <rect class="e" x="102.6" y="63.2" width="0.16" height="7.17"/>
        <rect class="e" x="102.09" y="68.63" width="4.83" height="0.47" transform="translate(-20.21 79.32) rotate(-38.18)"/>
      </g>
    </g>
    <path class="f" d="M152.89,49.4V162.52H137V49.8A73,73,0,0,0,152.89,49.4Z"/>
    <path class="f" d="M434.59,61.13V162.52H418.68V42.34A141.93,141.93,0,0,1,434.59,61.13Z"/>
    <g>
      <path class="g" d="M165.94,122.59h-2.55l3.12,39.55h6.21Z"/>
      <g>
        <path class="h" d="M216.69,111.05l-.55.11a4.53,4.53,0,0,1-5.33-3.54l-.58-2.86a4.54,4.54,0,0,1,3.54-5.33l.55-.11a4.53,4.53,0,0,1,5.33,3.54l.58,2.86A4.54,4.54,0,0,1,216.69,111.05Z"/>
        <path class="g" d="M163.39,122.59s13.93-6.54,33-2.19l-30.48,2.19Z"/>
        <path class="i" d="M172.72,162.52l-6.78-39.93s21.35-7.17,37.92,0l9.85,39.68Z"/>
        <g>
          <path class="j" d="M320.36,150.16c-.38,4.33-2.83,5.67-3.9,5.55s-7.37-2.51-7.5-1.63,3.65,3.76,6.3,3.9c0,0-5,5.52-8.34,3.92s-3.61-4.12-5.68-5.06-3.85-1-3,0,4.61,1.9,5.8,4c.28.49.55.95.76,1.36l-7,0c-2.22-1.1-4.09-2.62-4.23-4.27l0-.36-.22-2.52s-3.6-4.2-1.72-7.68a5.24,5.24,0,0,1,1.42-1.65s3.36-2,6.09-1.87a34,34,0,0,0-2.72,5.67c-.21.74-.23,1.3.1,1.47s.82-.35,1.3-1.21a44.42,44.42,0,0,0,2.5-6.34s2-.2,4.31-.22a28.87,28.87,0,0,1,3.1.09,8.51,8.51,0,0,1,2.68.57l-.37.3-1.5,1.29c-1.81,1.6-4.16,3.86-3.28,4.06.71.17,2.94-1.16,4.93-2.47s3.49-2.45,3.49-2.45S320.73,145.82,320.36,150.16Z"/>
          <g>
            <path class="j" d="M316.87,150.28s-19.29-.75-23.55,4.77a14,14,0,0,1-3.84,5.39l-.46,1.23s3.35-3.52,4.54-3.74C293.56,157.93,291.69,151.1,316.87,150.28Z"/>
            <path class="j" d="M290.29,160.41c-.17.18-.42.42-.77.75h0c-.12.11-.24.24-.36.37a8,8,0,0,0-.51.64h-.9a10.61,10.61,0,0,1,1.74-1.74h0C289.55,160.39,291.21,159.39,290.29,160.41Z"/>
          </g>
        </g>
        <g>
          <path class="j" d="M272.26,147.87s7.78-4.36,4.15-10.27c0,0-2.9-3.63-6-4.57,0,0,1.66,8.82,0,9s-1.14-10-1.14-10-8.2-3.94-11.41-3.63c0,0,5.08,8.61,3.42,8.4s-7.36-8.93-7.36-8.93-8.4-1.55-9.76,3.43.83,7.47,2.08,7.78,9.23.21,9,1.24-5.6,2.7-8.61,1.77c0,0,3.32,8.2,7.68,7.78s5.71-3.11,8.4-3.32,4.67.52,3.32,1.24-5.92.24-8.1,2.09-3.94,3,.1,3.83,11.31.31,12.77-2.8Z"/>
          <g>
            <path class="j" d="M248,132.93s21.79,7,24.28,14.94a16.58,16.58,0,0,0,2.08,7.57V157s-2.28-5.29-3.53-6C270.81,151,275.69,144.13,248,132.93Z"/>
            <path class="j" d="M276.36,162.16h-1.25a16,16,0,0,0-.86-5.36h0c-.08-.19-.16-.38-.25-.55h0c-.26-.5-.43-.88-.54-1.15h0c-.64-1.56.88.36.88.36A14.62,14.62,0,0,1,276.36,162.16Z"/>
          </g>
        </g>
        <g>
          <path class="e" d="M284.64,141.86s-10.25-5.74-5.47-13.54c0,0,3.83-4.79,7.94-6,0,0-2.19,11.63,0,11.9s1.5-13.13,1.5-13.13,10.8-5.2,15-4.79c0,0-6.7,11.36-4.51,11.08s9.71-11.76,9.71-11.76,11.08-2,12.86,4.51-1.1,9.85-2.74,10.26-12.17.27-11.9,1.64,7.39,3.56,11.35,2.33c0,0-4.37,10.8-10.12,10.26s-7.52-4.1-11.08-4.38-6.15.68-4.37,1.64,7.8.31,10.66,2.76,5.2,3.94-.13,5-14.91.41-16.83-3.7Z"/>
          <g>
            <path class="j" d="M316.65,122.16s-28.73,9.3-32,19.7a22,22,0,0,1-2.73,10v2.05s3-7,4.65-7.93C286.56,146,280.13,136.94,316.65,122.16Z"/>
            <path class="j" d="M283.07,151.37h0c-.14.36-.37.85-.71,1.52h0c-.12.23-.23.48-.33.73h0a24.05,24.05,0,0,0-1.14,8.55h-1.65a19.29,19.29,0,0,1,2.67-10.33h0C282,151.79,283.9,149.34,283.07,151.37Z"/>
          </g>
        </g>
        <path class="k" d="M233.57,162.27h-39a40.92,40.92,0,0,1-1.52-4.45,75.29,75.29,0,0,1-2.3-12.37v-.17a142.79,142.79,0,0,1-.69-18.5c.06-2.43.16-3.93.16-4h0l.25-.1c2.07-.87,4.06-1.62,6-2.27h0c1.6-.54,3.14-1,4.61-1.42a67.27,67.27,0,0,1,7.27-1.58,50.7,50.7,0,0,1,7.17-.66h1.93a31.15,31.15,0,0,1,10.69,1.89l.65.27.07,0,.47.22,0,0a1.19,1.19,0,0,1,.16.08l2.81,29.57Z"/>
        <path class="k" d="M272.45,155.88c-3.91,1.81-27.16,3.34-29.39,2.7-1.15-.33-5.94-4.55-10.76-9.75h0c-4.57-4.91-9.17-10.7-10.72-14.86a25.41,25.41,0,0,1-.45-16.14s5.93,0,8.35,1.43,16.25,26.94,18.1,27.6,23.76,1.93,26.26,3.12C273.84,150,276.36,154.07,272.45,155.88Z"/>
        <path class="l" d="M215.76,117.76v1.44s.4,4.5-5.14,5.17-9.75-1.74-9.6-5.21a39.92,39.92,0,0,0,1.07-6.77,15.27,15.27,0,0,0-.2-2.7l10.75-.23,3.16.51Z"/>
        <path class="m" d="M215.79,110l0,7.79a9,9,0,0,1-3.87.86c-4.94,0-9.86-7.93-10-8.93Z"/>
        <path class="l" d="M216.42,113.76s-13.76,2.8-15.37-5.8-4.47-14,4.24-16.17,11,.81,12.28,3.55S220,112.81,216.42,113.76Z"/>
        <path class="n" d="M220.23,89a28.94,28.94,0,0,1-8.36-2.25c-3.68-1.59-8.31.17-9.81,1a2.26,2.26,0,0,1,.36-.91,2,2,0,0,0-.77,1.15c-.07,0-.1.09-.08.1a2.69,2.69,0,0,0-1.26.09s.34,0,.47.17l.05.06c-5.72,2.78-6.24,11.83-4.39,13.92,2.22,2.52,4.89,8.2,4.89,8.2a4.85,4.85,0,0,0,.56-3.57c-.41-2.21,1.51-2.22,3.93-3.23s.4-3.83,2.51-5.55,9.88-.72,9.78-2C221,95,220.23,89.24,220.23,89Z"/>
        <path class="o" d="M194.55,162.27a40.76,40.76,0,0,1-1.52-4.44,74.53,74.53,0,0,1-2.29-12.38l0-.16s.08.09.11.05c1.52-1.84,5.66-3.86,10.69,3.49,1,1.46,5.4,11.73,6.1,13.44Z"/>
        <path class="l" d="M198.63,162.27a4.18,4.18,0,0,1,.53-2.54s.64-.42,1.5-.9c1.27-.72,3-1.59,3.81-1.45l.56.12c1.87.45,6.23,1.8,6.9,2.58s1.28,1.48,1.79,2.19Z"/>
        <path class="k" d="M201.52,162.27H164.75a2.37,2.37,0,0,1,0-1.24c1.1-2.77,3.24-7.33,5.7-12.22,1.82-3.6,3.8-7.38,5.68-10.76a75.74,75.74,0,0,1,6.39-10.23,16.76,16.76,0,0,1,4-3.2,28.14,28.14,0,0,1,3.68-1.85h0l.25-.1a32.34,32.34,0,0,1,4.59-1.49s0,1.16,0,2.95c0,5.18-.19,15.62-1.84,18.17a35.1,35.1,0,0,1-2.39,3l-.1.11c-.58.68-1.22,1.41-1.9,2.17-3.83,4.3-8.7,9.34-9.29,10l-.06.06h.07l10.31.14,3.17.05,6.55.09a2.51,2.51,0,0,1,1.08.91A6.69,6.69,0,0,1,201.52,162.27Z"/>
        <path class="o" d="M272.45,155.88c-3.91,1.81-27.16,3.34-29.39,2.7-1.15-.33-5.94-4.55-10.76-9.75.23,0,2.44-3.64,12.5,5.15,0,0,2.63,1.18,9.8.52S271,153.6,272.45,155.88Z"/>
        <g>
          <path class="p" d="M249.61,162.2H223a2.12,2.12,0,0,1,2.12-2.12h24.46Z"/>
          <path class="p" d="M249.53,133.25h41.1l-9.85,28.95H239.41Z"/>
          <path class="q" d="M291.23,133.25l-9.85,28.95H240l10.13-28.95Z"/>
          <path class="r" d="M269.08,147.46a2.68,2.68,0,0,1-2.46,2A1.54,1.54,0,0,1,265,148a1.36,1.36,0,0,1,.07-.53,2.65,2.65,0,0,1,2.46-2,1.54,1.54,0,0,1,1.61,1.47A1.58,1.58,0,0,1,269.08,147.46Z"/>
          <path class="p" d="M291.23,133.25l-9.85,28.95H262.14l23-28.95Z"/>
        </g>
        <path class="h" d="M205.05,111.05l-.55.11a4.53,4.53,0,0,1-5.33-3.54l-.58-2.86a4.53,4.53,0,0,1,3.54-5.33l.55-.11a4.53,4.53,0,0,1,5.33,3.54l.58,2.86A4.54,4.54,0,0,1,205.05,111.05Z"/>
        <path class="h" d="M200.78,100.74c-.36-.66-.9-6,.56-10.24a6.83,6.83,0,0,1,3.29-4,3.59,3.59,0,0,1,1.7-.44l1.44,0c-4.75,2-5.86,12.78-5.49,13.93l0-.08Z"/>
        <path class="h" d="M214.66,112a14.71,14.71,0,0,1-12-6.38l.71-.44-.36.22.36-.22a13.83,13.83,0,0,0,11.27,6h.15V112Z"/>
        <path class="k" d="M203.76,108.25l-.27,0a2.26,2.26,0,0,1-2.66-1.76l-.29-1.43a2.26,2.26,0,0,1,1.77-2.65l.27-.06a2.26,2.26,0,0,1,2.65,1.76l.29,1.43A2.26,2.26,0,0,1,203.76,108.25Z"/>
        <path class="h" d="M215.65,112.23h-.75a.7.7,0,0,1-.7-.7h0a.7.7,0,0,1,.7-.7h.75a.7.7,0,0,1,.7.7h0A.7.7,0,0,1,215.65,112.23Z"/>
      </g>
    </g>
    <g>
      <path class="n" d="M55.81,99.72s-6.7,3.43-1.82,10.79c0,0-5.76.67-7.21-1a4.71,4.71,0,0,0,.47,1.08s-5.58-.73-7.57-2.85,4.23-30.24,19.1-24.48c0,0,13.21,1.2,9.46,16.1s1.18,15.72,1.18,15.72a7.15,7.15,0,0,1-2.15.33s-.9-.53-1-1.1a3.62,3.62,0,0,0,.26,1.18s-5.4-.39-7.72-2.84S54.53,102.71,55.81,99.72Z"/>
      <path class="e" d="M65.38,107.08l-.54.07a4.39,4.39,0,0,1-5-3.74l-.39-2.8a4.41,4.41,0,0,1,3.75-5l.53-.08a4.41,4.41,0,0,1,5,3.75l.39,2.8A4.41,4.41,0,0,1,65.38,107.08Z"/>
      <path class="l" d="M66.91,129.56c-2,1.55-3.27,7.12-6.49,8-12.09,3.45-18.58-10.9-20.7-17.91a10.63,10.63,0,0,1,4.08-1.49c.88-.14,1.8-.26,2.57-.34,1.32-1.12,3.15-5.53,3.26-12.24l.58.12L60,107.89s-.29,3.09-.36,6c-.05,2.27-.12,2.82,0,3.09.76.12,1.66,2.07,1.66,2.07h0A62.74,62.74,0,0,1,66.91,129.56Z"/>
      <path class="m" d="M60,107.9s-.29,3.08-.36,6c-5.49-.27-8.29-5.34-9.42-8.14Z"/>
      <g>
        <path class="i" d="M109.71,158.6s-5.75.21-12,.23H95.49c-5.08,0-10.08-.2-12.21-.75s-10.06-6-16.46-12.51h0c-.5,1.18-.87,2.09-.88,2.16a32.37,32.37,0,0,1-.88,4.36,52.79,52.79,0,0,1-4,10.1H57.69l-26.74,0s5.05-7.78,3.7-27.7c0-.5,4.65-16.58,4.65-16.58s3.64-.64,7.85-1c.4.37,1.22,10.94,6.49,11.55.85.1,6.35,8.5,6.35,8.5l1.66-8.58-2-11.37a59.55,59.55,0,0,1,6,1.84,6.7,6.7,0,0,1,3.36,3c3.68,6.72,15.62,28.41,16.84,28.92a89.26,89.26,0,0,0,10,2.16h0c6.09,1.11,12.63,2.17,12.63,2.17Z"/>
        <path class="i" d="M63,162.19h0Z"/>
      </g>
      <path class="l" d="M61.62,110.84s-13-.26-12.72-8.35S47.7,88.91,56,88.73s9.81,3,10.38,5.69S65,110.69,61.62,110.84Z"/>
      <path class="e" d="M97.72,158.83H95.49c-5.08,0-10.08-.2-12.21-.75s-10.07-6-16.46-12.51h0s1.35-5.16,1.93-6,2.88,7.53,8.24,10.95,13.74,5.81,17.82,4.84C97.55,154.69,97.83,157.15,97.72,158.83Z"/>
      <path class="b" d="M59.06,106.33s.09,1,2.22,1.12c0,0,1.79.13,1.86-.91A5.25,5.25,0,0,0,59.06,106.33Z"/>
      <path class="h" d="M59.77,109.6a14.27,14.27,0,0,1-9.22-9.4l.79-.2-.39.1.39-.1A13.45,13.45,0,0,0,60,108.82l.14,0-.23.78Z"/>
      <path class="e" d="M60.6,110.15l-.7-.22a.68.68,0,0,1-.44-.85h0a.69.69,0,0,1,.85-.44l.7.22a.67.67,0,0,1,.44.85h0A.68.68,0,0,1,60.6,110.15Z"/>
      <path class="n" d="M62.36,87.66S59,97.52,54,99.19s-6.64-.31-6.64-.31A14.43,14.43,0,0,0,51.49,90S59.55,83.63,62.36,87.66Z"/>
      <path class="n" d="M56.14,90.56s6.78-.38,8.8,1.55c1.46,1.39,1.43,2.12,1.54,4,0,0,3-4.57-.09-7.77C63.16,84.92,56.14,90.56,56.14,90.56Z"/>
      <path class="n" d="M62.07,88.7s-1.7,9.43-7.9,12.86c0,0,6-6.15,6.11-12.31S62.07,88.7,62.07,88.7Z"/>
      <path class="n" d="M39.68,107.75c2,2.12,7.57,2.85,7.57,2.85a4.71,4.71,0,0,1-.47-1.08c2.87,2.33,9.91.64,9.91.64-5.62-1.24-3.8-9.35-1.89-9.69q1.76-8.68,4.36-17.15l-.39,0C43.91,77.51,37.68,105.64,39.68,107.75Z"/>
      <g>
        <path class="e" d="M51.88,106.25l-.54.07a4.39,4.39,0,0,1-5-3.74L46,99.77a4.4,4.4,0,0,1,3.75-4.94l.53-.08a4.41,4.41,0,0,1,4.95,3.74l.39,2.81A4.4,4.4,0,0,1,51.88,106.25Z"/>
        <path class="e" d="M48.37,96c-.32-.6.8-5.24,2.44-8.84.8-1.75,2.8-4.08,4.24-4.68a3.1,3.1,0,0,1,1.76,0,14,14,0,0,1,1.55.63c-4.71,1.46-8.8,11.33-8.5,12.35l0-.07Z"/>
        <path class="j" d="M50.8,103.46l-.27,0a2.19,2.19,0,0,1-2.46-1.87l-.2-1.4a2.19,2.19,0,0,1,1.87-2.46l.26,0a2.2,2.2,0,0,1,2.47,1.86l.19,1.4A2.2,2.2,0,0,1,50.8,103.46Z"/>
      </g>
      <path class="l" d="M82.34,153.91s5.58-.32,6.12,0a31.4,31.4,0,0,1,4.34,3,27.61,27.61,0,0,1,1.7,2.81s-.53.14-.77-.07-2.06-2.15-2.06-2.15l1.87,2.84a1.63,1.63,0,0,1-.9-.31c-.25-.29-2-2.06-2-2.06l-.59-.12a6.81,6.81,0,0,1,.93.93,6,6,0,0,1,.55.91,4.2,4.2,0,0,1-.7-.17c-.17-.08-1.73-1.45-1.73-1.45l.83,1.13a2.13,2.13,0,0,1-.75-.15,10.86,10.86,0,0,0-1.62-1.24,7.28,7.28,0,0,1-2.44-.42c-.67-.36-2.76-1.17-2.76-1.17Z"/>
      <path class="e" d="M47.92,115.34s-3.73,1.08-4.58,1.94c0,0,3.9,10,9.52,14.61l1.5-1.06v2.42L60,136.93S47.63,118.35,47.92,115.34Z"/>
      <path class="e" d="M65.06,152.09a53,53,0,0,1-4,10.1H43.35s2.06,0,2,0c0-.18,3-8.45-2-11.84s-6.91-11.75-6.91-11.75l16.13-3.94s6.64,9.7,8.53,11.55c1.46,1.42,4.84,1.52,4.84,1.52Z"/>
      <path class="e" d="M59.68,117s1.72,13.56.3,20c0,0,2.3-4.23,2.63-5l-.39-2.32,1.49.52s-1.31-10.81-2.5-12.7-1.63-2.08-1.63-2.08Z"/>
      <path class="l" d="M109.71,158.6s-7.19.26-14.22.23c-1.74-2.7.39-6,.39-6h0c6.09,1.12,12.63,2.17,12.63,2.17Z"/>
      <path class="s" d="M110.39,162.2H83.81a2.12,2.12,0,0,1,2.12-2.12h24.46Z"/>
      <path class="e" d="M151.41,133.25l-9.85,28.95H100.19l10.13-28.95Z"/>
      <path class="e" d="M151.41,133.25l-9.76,28.68-.09.27H100.8l10.12-28.95Z"/>
      <path class="t" d="M129.86,147.46a2.68,2.68,0,0,1-2.46,2,1.54,1.54,0,0,1-1.61-1.47,1.36,1.36,0,0,1,.07-.53,2.65,2.65,0,0,1,2.46-2,1.54,1.54,0,0,1,1.61,1.47A1.36,1.36,0,0,1,129.86,147.46Z"/>
      <path class="s" d="M151.41,133.25l-9.76,28.68H122.92l22.83-28.68Z"/>
      <path class="l" d="M82.35,156.16s-13.69,1.2-21.25.86v-7.43c5,1.37,21.24,4.32,21.24,4.32Z"/>
      <path class="i" d="M43.34,117.28s-7.82.18-10.24,2.79,2.4,17.4,2.4,17.4,14.58,17.87,21.88,19.13c0,0,3.19.43,4.68.46,0,0-1.46-4.25,1.25-6.92,0,0-3.12-.87-3.25-1.26S43.34,117.28,43.34,117.28Z"/>
    </g>
    <g>
      <g>
        <path class="k" d="M370.36,83.61s-7.92-3-12.88,2.84c-2.83,3.32-21,37.93-20.77,41a6.9,6.9,0,0,0,1.94,4.54s-.75-2.65-.18-4c0,0-.37,4.67,2.51,6.66,1.5,1,38.88-1,42.12-5.52,7.07-9.84-8.36-14.94-8-25.57C375.34,97.33,381.4,84.23,370.36,83.61Z"/>
        <path class="e" d="M377.91,105.66l-.53.1a4.4,4.4,0,0,1-5.17-3.43l-.56-2.77a4.4,4.4,0,0,1,3.43-5.17l.53-.11a4.4,4.4,0,0,1,5.17,3.43l.56,2.78A4.4,4.4,0,0,1,377.91,105.66Z"/>
        <path class="e" d="M411.82,162.15H387c-4.2-6.68-7.9-15.7-8.76-22.72-.41-3.33-.18-6.21.93-8.18,3.46-6.12-2-13.3-2-13.3s7.56,2.14,9.32,8.38,6.6,27.49,6.6,27.49l18.41,3.78A8.59,8.59,0,0,1,411.82,162.15Z"/>
        <path class="j" d="M411.82,162.15H387c-4.2-6.68-7.9-15.7-8.76-22.72l3.68-1.12s4.65,21.24,7.36,21.57S411.82,162.15,411.82,162.15Z"/>
        <path class="l" d="M380.82,128a22.74,22.74,0,0,1-7.51,4.25c-11.86,4.19-17.68-5.57-20.23-12.44a10.66,10.66,0,0,1,4-1.73c.86-.2,1.78-.38,2.54-.5,1.25-1.2,2.8-5.72,2.5-12.42l.59.09,9.89,1.54s-.09,3.1,0,6c.09,2.27.3,4.43.79,4.91l1.23.13h0A62.3,62.3,0,0,1,380.82,128Z"/>
        <path class="m" d="M372.59,106.8s-.1,3.1,0,6c-5.5.07-8.6-4.82-9.91-7.55Z"/>
        <path class="e" d="M385.54,138.31c0,.21-2.67,8.8-2.7,9-.92,7.19-2.58,14.87-2.58,14.87h-3.63l-24,0s2.89-8.73-4.74-22.1c-.25-.44-.51-.88-.78-1.33-1.09-1.79,5.76-20.86,5.76-20.86s3-.53,7.21-.87c.4.37,3.32,11.06,8.62,11.39,6.9.42,4.28-11.5,4.28-11.5a24.12,24.12,0,0,1,7.44,2.5S385.68,137.13,385.54,138.31Z"/>
        <path class="l" d="M374.39,109.64s-13,.54-13.2-7.55-2-13.48,6.24-14.17,10,2.35,10.71,5S377.77,109.28,374.39,109.64Z"/>
        <path class="b" d="M371.57,105.3s.14,1,2.28,1c0,0,1.79,0,1.8-1A5.25,5.25,0,0,0,371.57,105.3Z"/>
        <path class="h" d="M372.47,108.52a14.29,14.29,0,0,1-9.78-8.81l.78-.25-.39.13.39-.13a13.44,13.44,0,0,0,9.2,8.27l.14,0-.19.79Z"/>
        <path class="u" d="M373.34,109l-.71-.17a.68.68,0,0,1-.49-.82h0a.69.69,0,0,1,.82-.5l.71.18a.68.68,0,0,1,.49.82h0A.68.68,0,0,1,373.34,109Z"/>
        <path class="k" d="M367,82.88s8.37-1.31,11.83,5.66c2.63,5.3.43,8.61-.6,9.62,0,0-1.37-7.61-3.93-8.26a2.76,2.76,0,0,0-2.77.8c-1.12,1.31-2.75,7.13-4.61,8,0,0-5.8,1.43-6.09-.59s-.12-8.32,1.34-9.34S367,82.88,367,82.88Z"/>
        <g>
          <path class="e" d="M364.39,105.66l-.53.1a4.41,4.41,0,0,1-5.17-3.43l-.56-2.77a4.4,4.4,0,0,1,3.43-5.17l.53-.11a4.41,4.41,0,0,1,5.17,3.43l.56,2.78A4.41,4.41,0,0,1,364.39,105.66Z"/>
          <path class="e" d="M360.26,95.66c-.36-.58-.88-5.23.54-8.92a6.11,6.11,0,0,1,3.19-3.5,3.72,3.72,0,0,1,1.64-.38l1.4,0C362.42,84.63,361.35,94,361.71,95l0-.07Z"/>
          <path class="j" d="M361.86,97.3h0a2.32,2.32,0,0,1,2.74,1.81l.22,1.12A2.31,2.31,0,0,1,363,103h0a2.32,2.32,0,0,1-2.74-1.81l-.22-1.12A2.31,2.31,0,0,1,361.86,97.3Z"/>
        </g>
        <path class="j" d="M352.67,162.15s2.89-8.73-4.74-22.1l2.84-3.55s5,14.24,11.32,18.4,13.65,3.28,14.54,7.29Z"/>
        <path class="e" d="M352.92,117.86s-5.18.45-8.64,6.57-10,29-10,37.72h27.68a8.69,8.69,0,0,0-.32-4.55l-17.13-3.3s10.31-15.3,10.42-21.91A64.84,64.84,0,0,0,352.92,117.86Z"/>
        <path class="l" d="M362.09,159.33s5.39-.52,6.28-.28a26.15,26.15,0,0,1,4,1.66,16.26,16.26,0,0,1,1.67,1.44,3.71,3.71,0,0,1-1.1,0A18.18,18.18,0,0,0,371,162a9.38,9.38,0,0,0-1.49.21h-8.36Z"/>
      </g>
      <g>
        <path class="k" d="M410.92,162.2H384.34a2.12,2.12,0,0,1,2.12-2.12h24.46Z"/>
        <path class="s" d="M451.94,133.25l-9.86,28.95H400.72l10.13-28.95Z"/>
        <path class="s" d="M451.94,133.25l-9.76,28.68-.1.27H401.32l10.13-28.95Z"/>
        <path class="v" d="M430.39,147.46a2.68,2.68,0,0,1-2.47,2,1.56,1.56,0,0,1-1.54-2,2.68,2.68,0,0,1,2.47-2,1.54,1.54,0,0,1,1.61,1.47A1.58,1.58,0,0,1,430.39,147.46Z"/>
        <path class="k" d="M451.94,133.25l-9.76,28.68H423.45l22.83-28.68Z"/>
      </g>
    </g>
  </g>
</svg>
