<svg id="McK_ScriptMark_RGB_White" xmlns="http://www.w3.org/2000/svg" width="249.288" height="77.114" viewBox="0 0 249.288 77.114">
  <path id="Combined_Shape" data-name="Combined Shape" d="M233.363,76.315l4.982-10.282L231.94,52.385a5.974,5.974,0,0,0-2.4-2.128h-.8V48.839H238.7v1.418h-1.156c-.534,0-1.69,1.329-1.69,2.039l4.36,10.016,4.27-10.016a2.792,2.792,0,0,0-1.6-2.039h-1.157V48.839h7.563v1.418h-.89c-.445,0-1.779,1.418-2.224,2.039l-6.405,14.448-4.716,10.371Zm-55.606.266h-9.964V75.164h1.246c.532,0,1.957-1.315,1.957-1.95V52.206c0-.635-1.426-1.949-1.957-1.949h-1.246V48.839h6.05l.623,3.812c1.6-3,3.71-4.343,6.851-4.343a6.55,6.55,0,0,1,5.427,2.626,11.43,11.43,0,0,1,1.958,6.946c0,5.855-3.255,10.105-7.741,10.105-3.128,0-4.983-1.078-6.405-3.723v8.952c0,.625,1.535,1.95,1.957,1.95h1.246v1.417h0Zm-3.291-20.919v4.964a5.36,5.36,0,0,0,5.427,5.407c2.923,0,4.659-1.67,5.161-4.964a19.545,19.545,0,0,0,0-5.584c-.366-3.1-2.085-4.874-4.716-4.874l-.185,0C177.439,50.609,175.472,52.357,174.466,55.663Zm-55.56,9.795a10.135,10.135,0,0,1-2.8-7.224,10,10,0,0,1,2.8-7.257,9.341,9.341,0,0,1,13.078,0,10.009,10.009,0,0,1,2.8,7.257,10.009,10.009,0,0,1-2.8,7.258,9.3,9.3,0,0,1-13.078-.033Zm1.112-10.592a25.667,25.667,0,0,0,0,6.382c.5,3.3,2.409,5.052,5.515,5.052l.213,0c3.883,0,5.027-2.7,5.3-4.966a25.492,25.492,0,0,0,0-6.382c-.273-2.3-1.45-5.052-5.516-5.052C121.6,49.9,120.362,52.6,120.019,54.866ZM54.682,65.8a8.1,8.1,0,0,1-2.814-6.15,10.333,10.333,0,0,1,1.346-5.185,11.4,11.4,0,0,1,3.28-3.59,8.911,8.911,0,0,1-2.313-6.027,6.272,6.272,0,0,1,1.869-4.8,7.369,7.369,0,0,1,5.071-1.673,12.908,12.908,0,0,1,3.662.567,6.693,6.693,0,0,0,1.676.319c.62,0,1.067,0,1.335-.532h1.246v6.825H67.793A6.062,6.062,0,0,0,65.881,41.9a6.97,6.97,0,0,0-4.849-2.194c-3.166,0-4.982,1.518-4.982,4.166,0,2.217,1.53,4.138,4.092,5.141,3.111,3.321,7.1,7.178,12.189,11.789a10.861,10.861,0,0,0,1.513-6.116c0-2.629-1.729-4.252-4.627-4.343V48.928h10.32v1.417H78.38c-.538,0-2.579,2.3-2.579,3.1a14.883,14.883,0,0,1-2.491,8.067,67.021,67.021,0,0,0,5.872,4.7H80.96V67.63h-3.2A9.809,9.809,0,0,1,70.551,64.7c-2.462,2.358-5.486,3.457-9.519,3.457A9.731,9.731,0,0,1,54.682,65.8Zm.121-8.1A7.831,7.831,0,0,0,57.54,63.3a8.935,8.935,0,0,0,5.805,2.471,10.29,10.29,0,0,0,6.317-1.95A147.32,147.32,0,0,1,57.117,51.586,7.834,7.834,0,0,0,54.8,57.7ZM88.7,53c0-8.243,4.893-14.891,12.989-14.891,3.114,0,5.072,1.241,7.3,1.241a2.015,2.015,0,0,0,1.779-.8h1.068V48.839h-1.156v.089c0-3.014-3.381-9.041-8.808-9.041-4.982,0-8.007,2.748-8.541,9.307a50.7,50.7,0,0,0,.089,7.357c.445,5.053,4,9.219,9.876,9.219,4.982,0,7.473-2.128,9.341-5.939h1.513A11.837,11.837,0,0,1,102.4,68.072C94.039,68.072,88.7,61.248,88.7,53ZM192,66.544a5.273,5.273,0,0,1-1.435-3.7,4.691,4.691,0,0,1,2.068-3.989,10.474,10.474,0,0,1,4.071-1.6l4.893-.975v-2.3c0-2.921-1.33-4.166-4.449-4.166a3.416,3.416,0,0,0-3.05,1.277c-.62.956-.55,2.353.2,4.041h-1.335l-2.491-3.812a9.716,9.716,0,0,1,7.563-2.925,8.381,8.381,0,0,1,5.015,1.4,4.992,4.992,0,0,1,2.013,4.189V64.173c0,.614,1.508,1.95,2.047,1.95h2.313c.539,0,2.046-1.337,2.046-1.95V52.3a3.623,3.623,0,0,0-2.046-1.949h-1.157V48.928h5.961l.712,3.812.191-.2a19.678,19.678,0,0,1,3.166-2.86,7.013,7.013,0,0,1,4.027-1.2,5.111,5.111,0,0,1,5.25,5.319V64.262c0,.614,1.507,1.949,2.046,1.949v-.088h1.068v1.418h-9.608V66.123h1.067c.539,0,2.046-1.337,2.046-1.95V53.891a2.886,2.886,0,0,0-3.025-3.191,7.789,7.789,0,0,0-4.07,1.484c-1.238.844-2.068,1.815-2.068,2.416v9.662c0,.614,1.507,1.949,2.046,1.949h1.067V67.63H202.135l-.445-3.812c-1.6,2.06-3.6,4.166-6.317,4.166A4.657,4.657,0,0,1,192,66.544Zm5.06-7.867c-2.154.578-3.114,1.726-3.114,3.723a2.956,2.956,0,0,0,3.025,3.013c1.914,0,3.857-1.918,4.627-3.28V57.525ZM134.7,67.63V66.211h1.067c.534,0,1.958-1.329,1.958-1.949V52.207c0-.621-1.424-1.95-1.958-1.95H134.7V48.839h5.783l.8,3.634c2.136-2.3,3.559-3.989,6.851-3.989,2.491,0,4.626,1.329,4.982,3.989,2.313-2.3,3.825-3.9,6.939-3.9a4.988,4.988,0,0,1,5.161,5.318V64.173h.177c0,.62,1.424,1.95,1.958,1.95h.89v1.418h-9.431V66.123h1.067c.535,0,1.958-1.33,1.958-1.95V53.8c0-1.861-.889-3.1-2.936-3.1-2.491,0-5.516,2.393-5.516,3.634v9.839c0,.62,1.424,1.95,1.958,1.95h1.067v1.418H146.8V66.123h1.067c.534,0,1.957-1.33,1.957-1.95V53.8a2.782,2.782,0,0,0-3.025-3.1c-2.491,0-5.516,2.482-5.516,3.812v9.751c0,.62,1.424,1.949,1.958,1.949h1.067V67.63Zm13.79-30.047L153.47,27.3,147.064,13.65a5.974,5.974,0,0,0-2.4-2.128h-.8V10.1h9.964v1.418h-1.156c-.534,0-1.69,1.329-1.69,2.038l4.36,10.016,4.27-10.016a2.792,2.792,0,0,0-1.6-2.038H156.85V10.1h7.563v1.418h-.89c-.445,0-1.779,1.418-2.224,2.038l-6.405,14.448L150.178,38.38ZM5.427,3.812v21.45c0,.621,1.69,2.216,2.224,2.216H9.075V28.9H0V27.477H1.424c.534,0,2.224-1.595,2.224-2.216V3.634c0-.621-1.69-2.216-2.224-2.216H0V0H8.452l8.719,21.8h.177L26.512,0h7.563V1.418H32.651c-.534,0-2.224,1.595-2.224,2.216V25.35c0,.62,1.69,2.216,2.224,2.216h1.424v1.418H22.865V27.566h1.424c.534,0,2.224-1.6,2.224-2.216V4.254L15.925,29.427Zm125.167,22.6A10.645,10.645,0,0,1,128.2,19.5c0-5.518,3.727-9.84,8.486-9.84h.144a6.733,6.733,0,0,1,4.96,1.917,7.1,7.1,0,0,1,1.89,4.642l.089,1.33-12.544.975a8.2,8.2,0,0,0,1.817,5.156,6.365,6.365,0,0,0,5.034,2.378c2.869,0,4.57-.976,5.872-3.368h1.157a10.193,10.193,0,0,1-2.825,4.853,7.757,7.757,0,0,1-5.359,1.795A8.176,8.176,0,0,1,130.594,26.413Zm.545-9.13,9.431-.8c.26-1.949.014-3.325-.755-4.2a3.891,3.891,0,0,0-3.071-1.115C132.886,11.168,131.319,14.327,131.139,17.284Zm-96.709,2.3c0-6.027,4-10.016,8.986-10.016a8.532,8.532,0,0,1,6.673,2.66l-2.758,4.254-1.067.089c.534-2.925,0-5.5-3.2-5.5-3.737,0-5.605,3.013-5.605,7.357,0,4.166,2.669,7.623,6.94,7.623,3.291,0,4.626-1.153,5.961-3.369h1.157c-1.246,4.077-3.737,6.647-8.452,6.647C37.812,29.338,34.43,24.907,34.43,19.589Zm81.139,8.42a1.56,1.56,0,0,0-1.423.621h-.89V22.071h1.157v.266c0,1.773,2.58,5.5,6.583,5.5,2.314,0,3.648-.8,3.648-2.57,0-2.127-1.868-2.836-3.559-3.545-1.334-.532-2.4-.976-3.914-1.684-2.313-1.064-4-2.57-4-5.142,0-3.368,2.047-5.318,5.694-5.318,2.047,0,3.2.976,4.626.976.535,0,.89-.089,1.068-.532h1.067v5.761h-1.157c0-1.507-2.225-4.874-5.694-4.874-2.224,0-3.2.975-3.2,2.481,0,1.6,1.157,2.216,3.025,3.014,1.424.62,2.491,1.064,4.093,1.684,2.046.8,4.36,2.393,4.36,5.406,0,3.546-2.491,5.674-6.051,5.674C118.594,29.162,117.171,28.009,115.569,28.009Zm-52.4.976h-11.3V27.566h1.423c.526,0,2.225-1.582,2.225-2.216V3.634c0-.634-1.7-2.216-2.225-2.216H51.869V0h11.3V1.418H61.744c-.526,0-2.224,1.582-2.224,2.216V15.422L69.929,3.9c.114-.138.095-.383-.059-.712-.356-.761-1.337-1.769-1.72-1.769H66.726V0h10.5V1.418H75.8c-.613,0-3.355,2.184-3.737,2.659l-7.028,7.534L75.178,25c.551.641,2.859,2.393,3.47,2.393h2.135c.539,0,2.047-1.337,2.047-1.95V13.473a3.626,3.626,0,0,0-2.047-1.95H79.627V10.1h6.762V25.439c0,.614,1.507,1.95,2.046,1.95h2.314c.539,0,2.046-1.337,2.046-1.95V13.473a3.624,3.624,0,0,0-2.046-1.95H89.59V10.1h5.962l.711,3.9.192-.2a19.636,19.636,0,0,1,3.167-2.859,7.017,7.017,0,0,1,4.026-1.2,5.111,5.111,0,0,1,5.25,5.318v10.46c0,.614,1.507,1.949,2.046,1.949h1.068V28.9H102.4V27.477h1.068c.539,0,2.046-1.336,2.046-1.949V15.245a2.886,2.886,0,0,0-3.025-3.19,7.8,7.8,0,0,0-4.071,1.484c-1.237.845-2.068,1.815-2.068,2.416v9.662c0,.614,1.507,1.95,2.047,1.95h1.067v1.417H72.509L62.456,14.536,59.52,17.727V25.35c0,.634,1.7,2.216,2.224,2.216h1.424v1.417h0ZM81.761,3.28a2.294,2.294,0,0,1,.745-1.761A2.591,2.591,0,0,1,84.253.887a2.449,2.449,0,0,1,1.7.632,2.347,2.347,0,0,1,.7,1.761,2.447,2.447,0,1,1-4.893,0Z" fill="#fff"/>
</svg>
