<svg xmlns="http://www.w3.org/2000/svg" xmlns:xlink="http://www.w3.org/1999/xlink" width="52" height="52" viewBox="0 0 52 52">
  <defs>
    <clipPath id="clip-path">
      <rect id="Rectangle_1969" data-name="Rectangle 1969" width="52" height="52" transform="translate(-5.09 -0.41)" fill="none" stroke="#888" stroke-width="2"/>
    </clipPath>
  </defs>
  <g id="pointer" transform="translate(5.09 0.41)" clip-path="url(#clip-path)">
    <path id="Path_11433" data-name="Path 11433" d="M7.862,16.235a8.938,8.938,0,0,1-2.4-6.094,9.2,9.2,0,1,1,18.383,0,8.8,8.8,0,0,1-2.4,6.094" transform="translate(0.535 0.113)" fill="none" stroke="#888" stroke-miterlimit="10" stroke-width="2"/>
    <line id="Line_71" data-name="Line 71" y2="5.281" transform="translate(11.993 29.226)" fill="none" stroke="#888" stroke-miterlimit="10" stroke-width="2"/>
    <path id="Path_11434" data-name="Path 11434" d="M11.4,16.37V14.2a3.169,3.169,0,0,1,3.108-3.027A3.088,3.088,0,0,1,17.555,14.2V16.37" transform="translate(6.666 11.109)" fill="none" stroke="#888" stroke-miterlimit="10" stroke-width="2"/>
    <path id="Path_11435" data-name="Path 11435" d="M14.43,16.388v-1.28A3.169,3.169,0,0,1,17.619,12a3.087,3.087,0,0,1,3.047,3.047V17.2" transform="translate(9.791 11.965)" fill="none" stroke="#888" stroke-miterlimit="10" stroke-width="2"/>
    <path id="Path_11436" data-name="Path 11436" d="M11.5,47.184c0-3.352-6.094-8.125-6.094-12.309V28.781A2.559,2.559,0,0,1,8.051,26.14H11.5V6.417a3.047,3.047,0,0,1,6.094,0v17.1" transform="translate(0.488 3.065)" fill="none" stroke="#888" stroke-miterlimit="10" stroke-width="2"/>
    <path id="Path_11437" data-name="Path 11437" d="M17.46,15.907a3.088,3.088,0,0,1,3.128-3.047,2.681,2.681,0,0,1,2.641,3.047L20.1,37.4" transform="translate(12.916 12.852)" fill="none" stroke="#888" stroke-miterlimit="10" stroke-width="2"/>
  </g>
</svg>
