<svg id="Group" xmlns="http://www.w3.org/2000/svg" xmlns:xlink="http://www.w3.org/1999/xlink" width="292.118" height="300.948" viewBox="0 0 292.118 300.948">
  <defs>
    <clipPath id="clip-path">
      <path id="Background01Mask" d="M0,0S.2,147.043,0,170.535c-.21,24.91,16.673,52.536,46.159,62.239,31.323,10.308,68.355-6.1,98.882,10.86,31.868,17.708,37.728,59.243,81.32,57.244,41.049-1.882,62.269-40.424,62.115-78.776-.1-23.86,0-222.1,0-222.1Z" transform="translate(0 0)" fill="none"/>
    </clipPath>
  </defs>
  <g id="Background01" transform="translate(0 0)">
    <path id="Background01Mask-2" data-name="Background01Mask" d="M0,0S.2,147.043,0,170.535c-.21,24.91,16.673,52.536,46.159,62.239,31.323,10.308,68.355-6.1,98.882,10.86,31.868,17.708,37.728,59.243,81.32,57.244,41.049-1.882,62.269-40.424,62.115-78.776-.1-23.86,0-222.1,0-222.1Z" transform="translate(0 0)" fill="none"/>
    <g id="Background01-2" data-name="Background01" clip-path="url(#clip-path)">
      <path id="Background01-3" data-name="Background01" d="M49.968.087c-70.812,2.782-61.1,89.3-3.807,108.157,31.323,10.308,68.355-6.1,98.882,10.86,31.868,17.708,37.728,59.243,81.32,57.244,66.586-3.053,81-102.568,36.637-141.261-30.448-26.556-57.727-14-94.484-15.09C128.346,18.806,90.03-1.487,49.968.087" transform="translate(0 124.53)" fill="#e6e6e6"/>
      <g id="Character" transform="translate(152.201 40.552)">
        <g id="Character_Head_Female_Bun" data-name="Character/Head/Female/Bun" transform="translate(7.201)">
          <path id="Face" d="M15.285,69.45c-6.794-.471-7.561-2.427-9.548-5.577s-.115-11.089-.115-11.089c8.76,0,7.341-10.2,5.995-15.545a21.463,21.463,0,0,1-5.1-8.168c-1.486,1.461-4.49-.509-5.564-1.946a4.912,4.912,0,0,1-.914-3.51,3.049,3.049,0,0,1,1.071-2.087A2.872,2.872,0,0,1,3.235,21.1a4.683,4.683,0,0,1,1.411.441C3.021,16.081,1.334,3.9,17,.414,31.411-2.8,34.6,13.768,34.6,13.768a21.407,21.407,0,0,1,.451,2.217c.075.773.111,1.55.189,2.324a21.916,21.916,0,0,0,.868,4.553,14.491,14.491,0,0,0,1.872,3.793c.591.853,1.97,2.241,1.624,3.437-.208.719-1.1.914-1.82.847-1.536-.142-2.321-.063-2.726,1.635a33.96,33.96,0,0,1-.572,3.641,12.37,12.37,0,0,1-2.143,3.933,8.982,8.982,0,0,1-8.19,2.866,24.729,24.729,0,0,1-3.333-.619c-3.445,12.79,6.39,9.17,9.226,12.939.318,3.069.816,8.52-1.561,11.294C26.6,68.82,23.7,69.6,19.206,69.6,18.014,69.6,16.71,69.548,15.285,69.45Z" transform="translate(20.994 29.072)" fill="#d0d0d0"/>
          <path id="Hair" d="M32.658,0C56.25,0,63.176,19.679,63.329,26.885,63.281,33.7,58.251,38.136,54.688,39.7c-2.759-5.582-3.748-6.165-7.079-6.889-2.214-1.151-7.379-.107-8.638,1.4s-.461,2.766-3.249,5.192-5.318,1.544-4.39,7.078c.818,11.707,7.827,17.392,11.307,17.392,5.234,0,11.59-3.4,13.887-3.4a10.078,10.078,0,0,0-.835,2.656s-6.248,1.916-6.248,3.979a1.433,1.433,0,0,0,1.868,1.332,7.633,7.633,0,0,0,3.376-1.332c-1.91,3.347-3.376,5.064-7.624,5.064-6.241,0-10.384-2.94-13.412-9.759a40.65,40.65,0,0,0-7.943-11.789c-2.716-1.067-4.715,0-4.715,2.751.089,4.265,5.318,5.795,6.53,4.772a21.916,21.916,0,0,0,5.134,8.183,22,22,0,0,1,.772,3.988C15,70.315,0,51.771,0,35.4S9.066,0,32.658,0Z" transform="translate(0 0)" fill="#051c2c"/>
        </g>
        <g id="Character_Legs_Standing_Pants" data-name="Character/Legs/Standing/Pants" transform="translate(11.09 167.132)">
          <g id="Shoe" transform="translate(57.54 161.941)">
            <path id="Skin" d="M0,3.009l.3-1.8L9.19,0,11.36,5.958.3,4.718Z" transform="translate(2.966)" fill="#d0d0d0"/>
            <path id="shoe-2" data-name="shoe" d="M3.488.028A1.569,1.569,0,0,0,1.846,1.371L.264,11.14a2.74,2.74,0,0,0-.256.149,13.533,13.533,0,0,0,1.12,4.732H44.47s1.185-5.823-2.5-6.291l-13.654-3.4a54.594,54.594,0,0,1-10.333-3.71L14.165.8Z" transform="translate(-0.002 2.153)" fill="#f0f0f0"/>
            <path id="Combined_Shape" data-name="Combined Shape" d="M7.912,9.355a.825.825,0,0,1-.2-1.132l3.372-4.979,1.556.5L9.02,9.14a.793.793,0,0,1-.659.357A.778.778,0,0,1,7.912,9.355ZM4.024,7.74a.821.821,0,0,1-.2-1.129L7.263,1.6l1.379.691L5.133,7.525a.794.794,0,0,1-.66.357A.779.779,0,0,1,4.024,7.74ZM.338,6.205A.813.813,0,0,1,.146,5.08L3.688,0,5.14.711,1.457,6a.806.806,0,0,1-.663.351A.793.793,0,0,1,.338,6.205Z" transform="translate(15.114 5.247)" fill="#b3b3b3"/>
          </g>
          <g id="Shoe_Copy" data-name="Shoe Copy" transform="translate(0 161.941)">
            <path id="Skin-2" data-name="Skin" d="M0,3.009l.3-1.8L9.19,0,11.36,5.958.3,4.718Z" transform="translate(2.966)" fill="#d0d0d0"/>
            <path id="shoe-3" data-name="shoe" d="M3.488.028A1.569,1.569,0,0,0,1.846,1.371L.264,11.14a2.74,2.74,0,0,0-.256.149,13.533,13.533,0,0,0,1.12,4.732H44.47s1.185-5.823-2.5-6.291l-13.654-3.4a54.594,54.594,0,0,1-10.333-3.71L14.165.8Z" transform="translate(-0.002 2.153)" fill="#f0f0f0"/>
            <path id="Combined_Shape-2" data-name="Combined Shape" d="M7.912,9.355a.825.825,0,0,1-.2-1.132l3.372-4.979,1.556.5L9.02,9.14a.793.793,0,0,1-.659.357A.778.778,0,0,1,7.912,9.355ZM4.024,7.74a.821.821,0,0,1-.2-1.129L7.263,1.6l1.379.691L5.133,7.525a.794.794,0,0,1-.66.357A.779.779,0,0,1,4.024,7.74ZM.338,6.205A.813.813,0,0,1,.146,5.08L3.688,0,5.14.711,1.457,6a.806.806,0,0,1-.663.351A.793.793,0,0,1,.338,6.205Z" transform="translate(15.114 5.247)" fill="#b3b3b3"/>
          </g>
          <path id="Pants" d="M32.86.024h4.469C39.8,23.049,45.192,61.4,47.916,96.209c.462,23.228,1.448,36.758,1.723,66.527H37.329q-7.1-46.387-12.454-82.3c-.476,5.65-.964,11.577-1.484,17.954-3.465,19.382-5.824,38.534-11.629,65.149H0C5.574,88.314,6.792,51.322,5.574.024Q19.017-.024,32.86.024Z" transform="translate(22.347 0)" fill="#2251ff"/>
        </g>
        <g id="Character_Body_Standing_2_Shirts_Long_Sleeve" data-name="Character/Body/Standing/2 Shirts Long Sleeve" transform="translate(0 79.856)">
          <path id="Arms" d="M2.891,126.089c-1.665-.2-3.316-4.544-2.792-12.517.3-3.789,2.313-10.126,2.792-13.973.943-7.576,2.58-17.2,2.813-28.381.323-15.435,3.626-25.733,3.626-25.733l7.825-2.435s-6.068,55.1-6.788,58.349c-1.079,4.867-.589,11.342,1.59,14.821-1.652.454-2.973-.846-4.009-2.146-1.775-2.228-2.717-4.456-3.057,2.146-.05,3.912,1.159,9.87-1.96,9.869Zm84.123-104.2Q88.4,17.109,89.63,12.3c14.8,2.227,32.308.972,47.212-2.733C142.966,5.228,145.379-1.2,146.415.2c.973,1.749-2.211,7.035-2.211,7.035a3.032,3.032,0,0,0,.581.95c2.19-.088,6.672-1.792,11.977-3.34,4.8-1.172,3.624,1.93,2.507,3.2-4.791,3.755-9.964,5.256-19.191,8.386a120.117,120.117,0,0,1-38.586,6.289A129.346,129.346,0,0,1,87.014,21.892Z" transform="translate(0 2.784)" fill="#d0d0d0"/>
          <path id="Shirt" d="M48.16,22.256c-.011-5.477-.365-6.964-.621-11.85-.162-3.1-2.389-4.871-4.518-6.365C41.845,3.217,34.2-.293,32.713.02c-1.052.22-4.129,6.515-9.075,6.705-4.279.3-6.882-1.043-11.879-5.607C10.625,1.24,5.282,2.8,2.982,4.566S1.058,6.86.711,7.927C-.4,11.323.047,15.145.339,18.647,1.3,30.2.912,39.093.935,50.92s.261,32.987.981,42.537c5.952-.312,25.99,4.467,52.527-2.753C52.022,75.637,48.17,27.733,48.16,22.256Z" transform="translate(19.708 0) rotate(3)" fill="#fff"/>
          <path id="Coat" d="M13.6,107.35c-.034-1.495.032-3.659.171-6.29L0,99.414l9.559-82.7s1.475-8.378,6.118-11.735a52.519,52.519,0,0,1,8.039-2.758v.006A29.775,29.775,0,0,1,31.293.01a64.668,64.668,0,0,0,7.316,3.561l0,.015c.181,1.356,4.461,33.444,5.694,53.512a193.719,193.719,0,0,1,.212,20.8,135.857,135.857,0,0,1-1.442,14.689,63.293,63.293,0,0,1-2.7,11.585l-1.769,4.54c-3.766.334-7.059.5-10.069.5A54.923,54.923,0,0,1,13.6,107.35Zm3.918-62.828L14.747,87.3c.417-5.149.9-10.656,1.358-15.9.791-9.05,1.539-17.6,1.772-22.222.143-2.834.3-5.5.454-8.073.095-1.6.187-3.157.272-4.693Zm48.886,64.421-.2-.025a24.419,24.419,0,0,0-3.4-.225c-.4,0-.831.008-1.277.023H52.275l-.006-.027c-.171-.865-1.071-5.481-1.963-11.408a157.539,157.539,0,0,1-1.969-21.367c0-34.36-1.253-72.721-1.265-73.1a14.133,14.133,0,0,1,5.2-2.8A.987.987,0,0,1,52.422,0c1.043,0,3.722,1.228,5.226,1.961S60.7,3.527,61.641,4.093L61.6,4.022s23.418,13.153,70.417,6.105V22.065s-45.86,4.654-65.461-.544q-.011.725-.023,1.5c-.162,10.445,1.5,23.876,3.261,38.1,1.967,15.889,4,32.318,4,47.6a34.355,34.355,0,0,1-4.785.427A18.637,18.637,0,0,1,66.409,108.943Z" transform="translate(0.099 1.722)" fill="#051c2c"/>
          <path id="Fill_1" data-name="Fill 1" d="M.84,31.09C.863,42.917.152,62.5,0,69.261a53.262,53.262,0,0,0,13.722,1.195C7.213,49.455,4.218,10.767,1.545,0,1.5,2.4.9,28.149.84,31.09Z" transform="translate(17.32 39.787) rotate(3)" fill="rgba(0,0,0,0.2)"/>
        </g>
      </g>
    </g>
  </g>
  <g id="Objects_Save" data-name="Objects/Save" transform="translate(61.428 73.869)">
    <path id="Rectangle" d="M0,0H42.226l8.316,8.316V50.542H0Z" transform="translate(0 1.555)" fill="#e6e6e6"/>
    <rect id="Rectangle-2" data-name="Rectangle" width="36.546" height="25.66" transform="translate(6.998 26.437)" fill="#00a9f4"/>
    <path id="Combined_Shape-3" data-name="Combined Shape" d="M24.1,18.662H0V0H24.1V18.661ZM14.774,3.11V15.551h4.666V3.11Z" transform="translate(13.219 0)" fill="#2251ff"/>
  </g>
  <g id="Objects_Heart" data-name="Objects/Heart" transform="matrix(0.875, 0.485, -0.485, 0.875, 243.14, 58.363)">
    <path id="Combined_Shape-4" data-name="Combined Shape" d="M28,8.831S35.335,0,42.553,0,56,7.236,56,12.9c.192,7.686-11.8,15.772-11.8,15.772S28,38.452,28,42ZM11.807,28.669S-.189,20.583,0,12.9C0,7.236,6.229,0,13.447,0S28,8.831,28,8.831V42C28,38.452,11.807,28.669,11.807,28.669Z" transform="translate(0)" fill="#2251ff"/>
  </g>
  <g id="Objects_Heart_Copy" data-name="Objects/Heart Copy" transform="translate(122.857 52.196) rotate(-21)">
    <path id="Combined_Shape-5" data-name="Combined Shape" d="M22.5,7.149S28.394,0,34.194,0,45,5.858,45,10.44c.154,6.222-9.486,12.767-9.486,12.767S22.5,31.128,22.5,34ZM9.488,23.208S-.152,16.662,0,10.44C0,5.858,5.005,0,10.805,0S22.5,7.149,22.5,7.149V34C22.5,31.128,9.488,23.208,9.488,23.208Z" transform="translate(0)" fill="#d0d0d0"/>
  </g>
  <g id="Scene_Tree_3" data-name="Scene/Tree 3" transform="translate(37.324 163.096)">
    <path id="Leaves" d="M49.7,32.787c0,18.108-11.126,32.787-24.85,32.787S0,50.894,0,32.787,11.126,0,24.85,0,49.7,14.679,49.7,32.787" fill="#00a9f4"/>
    <path id="Branches" d="M11.551,60.3l.426-19.5L0,36.118l12.008,3.258.165-7.564L0,27.206l12.2,3.449.192-8.808L4.974,18.96l7.435,2.026L12.868,0l.458,20.986,7.435-2.026-7.416,2.887.192,8.808,12.2-3.449-12.172,4.6.165,7.564,12.007-3.257L13.759,40.8l.426,19.5Z" transform="translate(11.652 16.067)" fill="#051c2c"/>
  </g>
  <g id="Scene_Tree_4" data-name="Scene/Tree 4" transform="translate(79.312 162.512)">
    <path id="Leaves-2" data-name="Leaves" d="M19.05,0h0A19.05,19.05,0,0,1,38.1,19.05V66.53a1.334,1.334,0,0,1-1.334,1.334H1.334A1.334,1.334,0,0,1,0,66.53V19.05A19.05,19.05,0,0,1,19.05,0Z" fill="#d0d0d0"/>
    <path id="Branches-2" data-name="Branches" d="M13.328,60.267l.281-14.739L0,40.312l13.638,3.723.165-8.658L3.241,31.285l10.586,2.848.125-6.548L3.241,23.565l10.731,3.01.146-7.63L7.585,16.423l6.547,1.769L14.479,0l.347,18.192,6.546-1.769L14.84,18.945l.146,7.63,10.731-3.01L15.005,27.584l.125,6.548,10.586-2.848L15.154,35.377l.165,8.658,13.638-3.723L15.348,45.528l.281,14.739Z" transform="translate(4.572 16.713)" fill="#00a9f4"/>
  </g>
</svg>
