<svg xmlns="http://www.w3.org/2000/svg" xmlns:xlink="http://www.w3.org/1999/xlink" width="52" height="52" viewBox="0 0 52 52">
  <defs>
    <clipPath id="clip-path">
      <rect id="Rectangle_31" data-name="Rectangle 31" width="52" height="52" transform="translate(-1.62 -0.42)" fill="none"/>
    </clipPath>
    <clipPath id="clip-path-2">
      <rect id="Rectangle_30" data-name="Rectangle 30" width="52" height="52" fill="none"/>
    </clipPath>
  </defs>
  <g id="Agile_campaigning" transform="translate(1.62 0.42)" clip-path="url(#clip-path)">
    <g id="Group_21" data-name="Group 21" transform="translate(-1.62 -0.42)" clip-path="url(#clip-path-2)">
      <rect id="Rectangle_28" data-name="Rectangle 28" width="15.762" height="1.171" transform="translate(33.773 39.844)" fill="#888" stroke="#888" stroke-width="0.3"/>
      <rect id="Rectangle_29" data-name="Rectangle 29" width="40.953" height="1.171" transform="translate(2.496 50.244)" fill="#888" stroke="#888" stroke-width="0.3"/>
      <path id="Path_46" data-name="Path 46" d="M21.084,1.9h.092l-.847.462h.092l-.724.462h.077l-.6.724V3.454l-.447.832V4.178l-.277.894h0l-.077.462h0v.493h0V6.5h0L18.449,7h0l.293.94V7.845l.462.832V8.584l.6.724h-.077l.709.57H20.36l.817.447h-.108l.894.277h-.108l.955.092H23.6l.94-.308h-.108l.847-.447h-.108l.724-.6h-.077l.585-.724v.092l.385-1.263v.108l.277-.909v.108l.046-.847V5.056l-.293-.94v.108l-.462-.847v.092L25.8,2.822h.077l-.709-.585h0L24.35,1.79h.108l-.894-.277h.108L22.717,1.4h-.77ZM21.716.48h1.156l1.063.108,1,.308.924.508.8.647.678.817.508.94.324,1.048.077.585V5.9l-.108,1.048-.324,1.017-.493.909-.663.817-.8.663-.94.508-1.048.339H22.717l-1.063-.123-1-.308-.924-.508-.8-.647-.663-.632-.508-.94L17.432,7l-.092-.57V5.287l.092-.555.308-.986.493-.924.678-.817.817-.724.94-.462Z" transform="translate(9.376 0.26)" fill="#888" stroke="#888" stroke-width="0.3"/>
      <path id="Path_47" data-name="Path 47" d="M29.177,15.244l3.22,3.22h0l.524.524h0l.508.416h0l.493.308h0l.493.216h0l.493.154h0l.508.108h.647l7.7-1.109-.493.524.324-4.16.616.632-8.228.663-.262-.231-.169-.169h0l-.247-.216L35,15.815h0l-.37-.354-.431-.4h0l-.924-.863h0l-.986-.894h0l-.847-.863h0l-.462-.277h0l-.354-.293h0l-.277-.216h0l-.185-.139h0L24,7.541h0l-.6-.262h0l-.6-.185h.092l-.6-.108h-.478l-6.24.231h-.324l-.447.077h.077l-.385.247h0l-.447.216h0l-.431.262h0l-.37.293h0l-.308.324V8.558l-.231.324h0L8.022,17.787l-.247-.8,3.836,1.988-.77.247,4.222-7.873,5.9-.431-18,31.108-.185-.786,4.622,2.881-.8.185L17.39,27.432l7.272,4.1-5.393,8.2-.154-.8,4.622,2.958-.8.185,6.394-10.4h0l.277-.508h0l.231-.447h0l.169-.416h0l.108-.385v-.431l-.077-.354V29.2l-.154-.37.092.154-.154-.2h0l-.216-.216h0l-.277-.231h0l-.324-.247h0l-.755-.508h0l-.847-.508h0l-.585-.154h0L26,26.492h0l-.724-.37-.293-.154h0L24.2,25.6ZM25.464,25.521l-.277-.77.277.123.293.154h0l.74.37.832.447.878.493.863.524.77.508.339.262.308.247.262.247.231.293.185.508.108.431v.924l-.123.447-.185.462-.247.478-.277.539-6.7,10.97-5.685-3.59,5.362-8.181.2.832-6.24-3.513.786-.2L7.283,45.474,1.69,41.93,19.409,11.285l.539.878-4.484.308.478-.293-4.36,8.1L6.79,17.74l5.269-9.6.277-.385.37-.385.431-.324.478-.308.508-.231.539-.185.524-.108h.462L21.889,6h.663l.693.123.663.216.678.293,6.286,3.944.216.154.293.231.354.308.416.354.909.817.986.894.94.878.416.4h0l.385.354.277.277h0l.247.231.154.154h0l-.4-.154,8.674-.693-.4,5.3-8.2,1.2-1.217-.077-.585-.108-.57-.169-.555-.262-.57-.339-.524-.462-.539-.524-2.65-2.558.94-.154Z" transform="translate(0.914 3.244)" fill="#888" stroke="#888" stroke-width="0.3"/>
    </g>
  </g>
</svg>
