<svg xmlns="http://www.w3.org/2000/svg" xmlns:xlink="http://www.w3.org/1999/xlink" width="52" height="52" viewBox="0 0 52 52">
  <defs>
    <clipPath id="clip-path">
      <rect id="Rectangle_2" data-name="Rectangle 2" width="52" height="52" transform="translate(-0.42 -0.42)" fill="none"/>
    </clipPath>
    <clipPath id="clip-path-2">
      <rect id="Rectangle_1" data-name="Rectangle 1" width="52" height="52" fill="none"/>
    </clipPath>
  </defs>
  <g id="Cross_functional" transform="translate(0.42 0.42)" clip-path="url(#clip-path)">
    <g id="Group_12" data-name="Group 12" transform="translate(-0.42 -0.42)" clip-path="url(#clip-path-2)">
      <path id="Path_1" data-name="Path 1" d="M28.574,23.1h4.191l.555.062.539.169.508.262.447.37.37.431.293.508.169.57.062.616-.062.585-.169.539-.262.508-.339.447-.431.37-.493.293L33.4,29l-.555.062H27.68V27.907h5.069l.462-.046-.123.015.447-.139-.123.062.4-.231-.092.046.354-.293-.092.092.293-.37-.062.092.216-.416-.046.108.139-.447-.015.108.046-.462v.108l-.046-.493.015.123-.139-.462.046.123-.231-.416.062.092-.293-.354.077.077-.354-.293.092.062-.416-.216.108.046-.447-.139.123.031-.478-.046h-4.1Z" transform="translate(15.615 13.138)" fill="#888" stroke="#888" stroke-width="0.5"/>
      <path id="Path_2" data-name="Path 2" d="M27.956,26.22H32.07l.539.046.524.154.493.247.431.339.37.416.277.493.185.539.062.555v.216l-.046.524-.169.524-.262.493-.339.416-.431.354-.493.262-.57.169-.57.046h-4.9V30.858h4.823l.478-.046-.108.015.447-.123-.108.031.4-.2-.092.062.339-.277-.077.077.262-.324-.062.092.216-.385-.046.108.123-.416-.015.108.031-.431V29.1l-.046-.462.031.123-.139-.431.046.108-.231-.385.077.108-.293-.339.062.077-.339-.277.092.062-.385-.2.092.046-.416-.139.108.031-.447-.046H27.956Z" transform="translate(15.339 14.825)" fill="#888" stroke="#888" stroke-width="0.5"/>
      <path id="Path_3" data-name="Path 3" d="M35.032,29.23h2.511l.57.092.539.185.493.277.416.37.339.431.262.508.139.555.031.585-.077.555-.169.508-.262.447-.324.416-.416.339-.462.262-.508.185-.57.077H28.53l-.832-.031-.817-.108-.817-.169-.786-.231-1.51-.539L22.321,33.3v.015l-4.237-1.772.046.015-.247-.077.185.031H12.63V30.339h5.531l.354.123,4.268,1.772,1.433.632-.031-.015,1.479.539-.046-.015.755.216-.046-.015.77.169-.062-.015.786.108-.046-.015.8.046h8.844l.462-.062-.108.015.416-.139-.092.046.37-.216-.092.062.324-.262-.077.077.262-.339-.046.092.2-.37-.046.092.139-.4-.015.092.062-.431-.015.108-.015-.462.015.108-.123-.431.046.123-.2-.4.077.092-.277-.339.077.077-.339-.308.092.077-.385-.231.077.046-.431-.154.108.015-.462-.062H35.032Z" transform="translate(7.477 16.453)" fill="#888" stroke="#888" stroke-width="0.5"/>
      <path id="Path_4" data-name="Path 4" d="M35.533,26.1h4.16l-.108.015.462-.077-.092.015.431-.154-.092.046.385-.231-.092.062.339-.308-.077.077.277-.37-.062.108.2-.416-.031.123.108-.447-.015.108.015-.478.015.123-.062-.447.015.092-.139-.4.046.108-.2-.37.046.077-.262-.324.077.077-.324-.277.092.062-.37-.2.092.031-.416-.139.108.031-.462-.077.092.015H26.782V21.8l.015.092-.108-.786.015.108-.247-.709.046.108-.385-.647.062.092-.478-.539.077.077-.585-.447.092.062-.647-.324.108.046-.709-.2.108.015-.74-.046H23.5l-.724.077.108-.031-.647.2.092-.031-.6.308.077-.046-.539.385.062-.046-.493.447.031-.031-.462.478.031-.015-.878,1-2.9,2.989H14.81V23.22h1.6L16,23.4l2.712-2.8-.015.031.863-1,.478-.508.524-.493.6-.416.678-.354.77-.231.832-.077.847.046.817.231.755.37.663.508.57.616.447.74.293.817.123.894v.2l-.585-.585H39.739l.555.092.508.169.478.262.4.354.324.4.262.462.169.508.077.539-.031.585-.139.57-.247.508-.339.447-.416.385-.493.308-.539.185-.57.108H35.533Z" transform="translate(8.655 10.137)" fill="#888" stroke="#888" stroke-width="0.5"/>
      <path id="Path_5" data-name="Path 5" d="M23.05,7.149V2.958l.062-.57.169-.539.262-.508L23.9.894l.447-.37.508-.277.57-.185L26.039,0l.585.062.539.169.508.262.447.354.37.447.293.508.169.57.062.585V8.027H27.857V3.035l-.046-.493.015.123L27.688,2.2l.046.108-.231-.4L27.564,2l-.293-.354.077.077-.354-.293.092.062-.416-.216.108.046-.447-.139.108.031-.462-.046h.108l-.493.046.123-.031-.462.139.108-.046-.4.231.092-.062-.354.308.077-.092-.293.37.062-.092-.216.4.046-.092-.139.431.031-.108-.062.478.015-.062v4.16Z" transform="translate(13.111 0.647)" fill="#888" stroke="#888" stroke-width="0.5"/>
      <path id="Path_6" data-name="Path 6" d="M26.17,7.683V3.569l.046-.524.185-.524.247-.493.354-.4.416-.354.478-.262.524-.169L28.959.78h.216l.508.046L30.207,1l.462.262L31.1,1.6l.354.431.277.478.185.57.046.585v4.9H30.808V3.738l-.046-.493.015.123-.139-.447.046.108-.216-.385.046.077-.277-.339.092.077L29.976,2.2l.092.046-.385-.2.108.046-.4-.139.123.031L29.1,1.936l.046.015H28.99l.062-.015-.447.046.123-.015-.416.139.092-.046-.385.2.108-.062-.324.277.062-.062-.277.324.062-.092-.2.385.031-.108-.139.416.031-.108-.046.431V7.683Z" transform="translate(14.798 1.069)" fill="#888" stroke="#888" stroke-width="0.5"/>
      <path id="Path_7" data-name="Path 7" d="M29.18,7.754v-2.5l.015-.539.108-.555.231-.539.308-.478.4-.416.493-.324.555-.216.6-.062.585.015.555.139.524.231.462.339.4.416.293.493.2.57.062.585v9.244L34.942,15l-.108.832-.169.8-.231.786-.539,1.51-.647,1.464v-.015l-1.833,4.252.015-.046-.077.231.031-.185v5.593H30.212V24.532l.123-.354,1.849-4.268.632-1.433-.015.031.539-1.479-.015.046.216-.74-.015.046.169-.77-.015.046.092-.786v.046l.046-.8V5.011l-.062-.478.031.123-.154-.447.062.108-.247-.385.077.092L33.217,3.7l.077.062-.37-.262.108.062-.416-.185.092.031-.462-.123.123.031-.478-.031h.092l-.493.062.154-.031-.431.154.092-.046-.37.247.092-.092-.308.339.062-.077-.262.385.062-.108-.169.431.031-.092-.108.462.015-.108-.015.478V7.754Z" transform="translate(16.426 1.799)" fill="#888" stroke="#888" stroke-width="0.5"/>
      <path id="Path_8" data-name="Path 8" d="M26.024,7.095V2.935l.015.092-.092-.462.031.092-.154-.431.046.108-.231-.4.062.092-.308-.339.077.077-.37-.277.108.062-.416-.2.108.046-.447-.123.123.031L24.1,1.271h.108l-.431.062.092-.031-.4.139.092-.046L23.2,1.61l.077-.062-.324.262.077-.062-.277.324.062-.108-.2.37.031-.092-.139.416.031-.108-.077.478V15.908h-.57l-.786.108.108-.031-.709.262.108-.046-.647.37.092-.062L19.522,17l.077-.077-.447.585.062-.092-.324.678.046-.108-.2.724.015-.123-.046.77v-.092l.077.74-.031-.108.2.647-.031-.092.308.585-.046-.062.385.524-.046-.046.447.493-.031-.031.478.447-.015-.015,1,.863,2.989,2.912v1.833H23.22V26.37l.185.416-2.8-2.727.031.031-1-.863-.508-.478-.493-.539-.416-.6-.354-.678-.231-.755-.077-.832.046-.878.231-.832.354-.77.508-.678.632-.57.74-.447.817-.293.894-.123h.108l-.57.57V2.889l.092-.57.169-.508.262-.462.354-.4.4-.339.447-.247.524-.169L24.1.1l.585.031.57.139.508.262.447.339.385.416.293.493.2.539.108.555V7.095Z" transform="translate(10.137 0.701)" fill="#888" stroke="#888" stroke-width="0.5"/>
      <path id="Path_9" data-name="Path 9" d="M7.2,11.95H3.008L2.454,11.9,1.9,11.735l-.493-.277-.447-.339-.37-.431L.3,10.194.112,9.639.05,9.054l.062-.585.169-.555L.543,7.42.9,6.974l.447-.37.508-.293.57-.185.585-.046H8.077V7.236H3.085l-.493.046.123-.031-.462.154.123-.046-.416.231.092-.062L1.7,7.821l.077-.077L1.483,8.1l.062-.092-.216.4.046-.092-.139.447.031-.123-.046.478V8.992l.046.462-.031-.123.139.447-.046-.123.231.4L1.5,9.978l.293.339-.077-.077.354.277-.077-.062.4.216L2.3,10.641l.431.123-.108-.015.478.046H7.2Z" transform="translate(0.674 3.935)" fill="#888" stroke="#888" stroke-width="0.5"/>
      <path id="Path_10" data-name="Path 10" d="M7.655,8.869H3.619l-.524-.062-.524-.169-.493-.262-.4-.339-.354-.416-.262-.478L.892,6.619.83,6.08V5.864l.046-.508.169-.524.262-.478.339-.416.431-.354.478-.277.57-.185.585-.062H8.534V4.231H3.788l-.478.046.108-.031L2.972,4.4l.108-.046-.385.216.092-.062L2.432,4.8l.077-.077-.262.324.046-.077-.2.37.046-.108L2,5.648l.031-.123-.046.416L2,5.895v.154l-.015-.062.046.431-.015-.108.139.416-.046-.092.2.37-.062-.092.277.324-.062-.062.324.277-.092-.062.385.2-.108-.046.416.139L3.28,7.667l.431.046H7.655Z" transform="translate(1.096 2.302)" fill="#888" stroke="#888" stroke-width="0.5"/>
      <path id="Path_11" data-name="Path 11" d="M7.509,5.859H5.059l-.57-.092L3.95,5.55,3.5,5.258l-.4-.385-.308-.447-.216-.493-.123-.524-.015-.57.077-.555.169-.524L2.948,1.3,3.287.9l.4-.339L4.15.3,4.674.127,5.229.05h9.013L15.074.1,15.891.2l.817.169.786.216L19,1.144l1.448.647h0l4.237,1.833-.046-.015.247.077L24.7,3.655H30.05V4.826H24.611L24.257,4.7,19.989,2.854l-1.448-.632.046.015L17.108,1.7l.031.015L16.4,1.5h.046l-.77-.154h.046l-.77-.092H15l-.8-.031H5.337l-.462.062.108-.031-.416.139.108-.046-.37.2L4.381,1.5l-.308.262.077-.077-.277.308.062-.077-.2.37.046-.108-.139.416L3.657,2.5,3.6,2.962l.015-.108.015.447-.015-.108.092.431-.046-.108.185.385L3.8,3.825l.247.354L3.95,4.087l.308.293-.077-.062.37.231-.123-.062.416.169-.108-.031L5.2,4.7l-.092-.015h2.4Z" transform="translate(1.967 0.674)" fill="#888" stroke="#888" stroke-width="0.5"/>
      <path id="Path_12" data-name="Path 12" d="M7.226,10.3H3.081l-.478.015.123-.015-.447.123.092-.046-.416.185.108-.062-.385.277.092-.077-.324.339.077-.108-.247.4L1.34,11.2l-.154.447.031-.108-.062.478.015-.077.015.462L1.171,12.3l.108.447-.031-.092.185.416-.062-.108.262.37-.062-.077.324.308L1.8,13.5l.385.231-.108-.046.447.154L2.4,13.808l.493.046H16.039v.585l.108.786-.031-.123.262.709-.046-.092.385.632-.077-.092.493.555-.077-.077.585.431-.092-.062.678.324-.108-.031.724.185-.108-.015.755.046H19.4l.74-.062-.108.015.647-.2-.092.046.585-.308-.062.046.539-.385-.062.046.493-.447-.031.031.462-.493-.031.031.863-1.017,2.912-2.974h1.756V13.1H26.5l.416-.169-2.712,2.789.015-.015-.863,1-.478.493-.539.493-.585.431-.678.339-.77.231-.832.092-.878-.062-.832-.216-.77-.37-.678-.508L15.746,17l-.447-.74-.293-.817-.123-.878V14.44l.57.585H2.789L2.2,14.949l-.57-.185-.493-.308L.724,14.07l-.339-.478-.231-.524-.139-.555L0,11.929l.062-.585.2-.57L.57,10.28l.385-.416.478-.339.508-.231.57-.139.539-.015H7.226Z" transform="translate(0.647 5.589)" fill="#888" stroke="#888" stroke-width="0.5"/>
      <path id="Path_13" data-name="Path 13" d="M11.9,28.6v4.175l-.046.57-.169.539-.277.508-.339.447-.431.37-.493.277-.555.185L9,35.734l-.57-.062-.539-.185L7.413,35.2,7,34.825l-.339-.462L6.4,33.839l-.169-.555L6.18,32.7V27.63H7.336v4.992l.046.493-.015-.108.139.462-.046-.092.216.431L7.613,33.7l.277.37-.062-.077.324.308-.092-.077.37.231-.092-.046.416.154-.139-.031.447.046H8.938l.462-.046-.123.015.447-.139-.123.046.4-.231-.077.062.339-.293-.077.077.277-.354-.062.092.216-.416-.031.108.123-.447-.015.108.046-.462V28.6Z" transform="translate(3.989 15.588)" fill="#888" stroke="#888" stroke-width="0.5"/>
      <path id="Path_14" data-name="Path 14" d="M9.023,27.911v4.114l-.046.524-.154.539-.262.493-.339.431-.431.37L7.3,34.66l-.57.185-.57.046H5.941L5.4,34.845l-.524-.154-.493-.262-.431-.339-.37-.431-.277-.493-.185-.57-.062-.57V27.11H4.231v4.823l.046.493L4.246,32.3l.139.447-.046-.108.231.385-.062-.077.293.339-.077-.077.339.277-.092-.062.4.2L5.263,33.6l.416.123-.108-.031.447.046h.046l.493-.046-.123.015.447-.139-.108.046.385-.216-.077.062.339-.293-.077.077.277-.339-.062.077.2-.385-.031.108.123-.431-.031.123.046-.447V27.911Z" transform="translate(2.302 15.307)" fill="#888" stroke="#888" stroke-width="0.5"/>
      <path id="Path_15" data-name="Path 15" d="M5.859,36.739v.847l-.092.555-.2.555-.308.478-.385.416-.447.339-.508.262-.57.139-.585.031-.57-.092-.508-.185-.462-.262-.385-.354-.308-.4L.281,38.6l-.154-.508L.05,37.571V28.557L.1,27.725.2,26.909l.169-.817.216-.786.555-1.51.647-1.448H1.776l1.756-4.16-.015.046.092-.247-.031.185V12.58H4.734v5.685l-.108.354L2.854,22.811l-.632,1.433.015-.031L1.7,25.692l.015-.046-.231.755.015-.046-.154.77v-.062l-.092.786V27.8l-.031.8v8.921l-.015-.077.062.447L1.252,37.8l.139.4-.046-.092.185.37L1.483,38.4l.247.324-.077-.077.308.262-.092-.062.354.2L2.13,39l.4.154-.108-.031.462.077-.123-.015.478-.015-.108.015.447-.123-.123.046.416-.2-.092.062.354-.277-.077.077.308-.339-.062.092.231-.4-.046.108.169-.431-.031.092.077-.462-.015.092v-.786Z" transform="translate(0.674 7.45)" fill="#888" stroke="#888" stroke-width="0.5"/>
      <path id="Path_16" data-name="Path 16" d="M10.3,35.56v4.052l.077.462-.031-.092.169.431-.062-.108.247.4-.077-.092.324.339-.077-.077.354.277-.092-.062.4.2-.108-.046.447.123-.108-.015.462.015h-.108l.447-.062-.108.031.416-.139-.108.046.37-.2-.077.046.324-.262-.077.077.277-.324-.077.092.216-.37-.046.092.154-.416-.031.108.077-.462-.015.077v-12.9h.74l-.077.015L15.3,26.7l-.123.031.724-.247-.108.046.632-.385-.077.062.539-.478-.077.077.431-.585-.046.092.324-.647-.046.108.2-.709-.031.108.046-.74.015.092-.077-.724.015.108-.2-.663.046.108-.308-.6.046.077-.385-.539.046.062-.447-.493.031.031L16,20.43l.015.031-1-.878-2.989-2.9V14.76h1.156v1.679l-.169-.416L15.8,18.735l-.015-.015,1,.863.508.478.478.524.431.6.339.678.247.77.077.832-.062.847-.216.817-.37.755-.508.663-.632.57-.724.447-.832.293-.878.123h-.2l.585-.585V39.751l-.092.57-.185.508-.262.462-.339.4-.4.339-.462.262-.508.169-.555.077-.585-.031-.555-.139-.524-.262-.431-.324-.385-.416-.308-.493-.2-.555-.092-.555V35.56Z" transform="translate(5.589 8.628)" fill="#888" stroke="#888" stroke-width="0.5"/>
    </g>
  </g>
</svg>
