<svg xmlns="http://www.w3.org/2000/svg" xmlns:xlink="http://www.w3.org/1999/xlink" width="52" height="52" viewBox="0 0 52 52">
  <defs>
    <clipPath id="clip-path">
      <rect id="Rectangle_51" data-name="Rectangle 51" width="52" height="52" transform="translate(-0.4 -4.21)" fill="none"/>
    </clipPath>
    <clipPath id="clip-path-2">
      <rect id="Rectangle_50" data-name="Rectangle 50" width="52" height="52" fill="none"/>
    </clipPath>
  </defs>
  <g id="Productivity_focus" transform="translate(0.4 4.21)" clip-path="url(#clip-path)">
    <g id="Group_29" data-name="Group 29" transform="translate(-0.4 -4.21)" clip-path="url(#clip-path-2)">
      <path id="Path_75" data-name="Path 75" d="M3.29,27.857V2.789l.062-.555.169-.524.262-.493L4.137.8,4.553.462,5.031.216,5.555.046,6.079,0h35.1l.555.062.524.169.493.262.416.354.339.416.247.478.169.524.046.524V27.857H42.795V2.82l.015.046-.046-.431.031.123-.139-.416.046.092-.2-.385.062.108L42.3,1.618l.062.077-.324-.277.092.062-.37-.2.092.046-.416-.139.108.015-.462-.046.062.015H6.11l.062-.015L5.724,1.2l.123-.031-.416.139.092-.046-.385.2L5.247,1.4l-.339.262L4.985,1.6l-.277.324.062-.092-.2.37.046-.092-.139.431.015-.123-.046.462V27.857Z" transform="translate(2.395 6.487)" fill="#888" stroke="#888" stroke-width="0.4"/>
      <path id="Path_76" data-name="Path 76" d="M51.181,24.5v1.325l-.123.724-.185.693-.231.663-.324.632-.354.6-.416.555-.493.508-.524.462-.555.416-.585.354-.632.308-.663.247-.678.169-.724.123H6.869l-.724-.123-.678-.185-.678-.231-.632-.308-.585-.354L3,30.648l-.493-.462-.478-.524-.416-.555-.324-.6-.308-.632-.231-.663-.185-.693L.46,25.81V24.5H19.781v3.081L19.2,27h13.22l-.585.585V24.5ZM32.415,25.671l.57-.585v3.081H18.548V25.085l.585.585H.968l.585-.616v.663h0l.108.663h0l.154.632h0l.231.6h0l.277.57h0l.324.555h0l.385.524h0l.431.478h0l.462.431h0l.524.385h0l.539.339h0l.57.293h0l.616.231h0l.632.169h0l.663.108H44.433l.663-.108h0l.632-.169h0l.6-.216h0l.57-.277h0l.555-.324h0l.524-.385h0l.478-.431h0l.431-.478h0l.385-.508h0l.339-.555h0l.293-.57h0l.231-.616h0l.169-.632h0l.108-.678h0v-.693l.585.616Z" transform="translate(0.249 13.248)" fill="#888" stroke="#888" stroke-width="0.4"/>
      <path id="Path_77" data-name="Path 77" d="M33.142,7.367,22.018,18.414l-6.98-6.964h.832L9.307,18l-.817-.817,6.964-6.964,6.98,6.964H21.6L32.325,6.55Z" transform="translate(5.207 10.028)" fill="#888" stroke="#888" stroke-width="0.4"/>
      <path id="Path_78" data-name="Path 78" d="M19.45,6.44h7.935v8.012H26.229V7.01l.585.585H19.45Z" transform="translate(11.134 9.969)" fill="#888" stroke="#888" stroke-width="0.4"/>
    </g>
  </g>
</svg>
