<svg xmlns="http://www.w3.org/2000/svg" xmlns:xlink="http://www.w3.org/1999/xlink" width="52" height="52" viewBox="0 0 52 52">
  <defs>
    <clipPath id="clip-path">
      <rect id="Rectangle_55" data-name="Rectangle 55" width="52" height="52" transform="translate(-0.42 -0.47)" fill="none"/>
    </clipPath>
    <clipPath id="clip-path-2">
      <rect id="Rectangle_54" data-name="Rectangle 54" width="52" height="52" fill="none"/>
    </clipPath>
  </defs>
  <g id="Talent_management" transform="translate(0.42 0.47)" clip-path="url(#clip-path)">
    <g id="Group_30" data-name="Group 30" transform="translate(-0.42 -0.47)" clip-path="url(#clip-path-2)">
      <path id="Path_79" data-name="Path 79" d="M13.632,5.578h0l-.092-.493v.077l-.247-.832v.108l-.462-.847v.092l-.6-.74v.092l-.724-.616H11.6l-.847-.447h.108L9.918,1.7H8.871l-.493.077h0l-.924.277h.092L6.714,2.5h.092l-.74.616V3.021l-.385.632V3.56l-.462.847V4.3l-.293.924V5.64h0v.508h0v.508h0v.508h0L5.2,8.09V7.982l.462.847V8.737l.6.74V9.384l.74.6H6.914l.832.462H7.653l.924.293h1.664l.94-.293h-.108l.77-.8h-.092l.74-.6-.092.092L13,8.4V8.49l.462-.847v.108l.293-.924h0l.092-.508h0V5.809h0Zm1.186.478v.555l-.077.57-.324,1.032-.508.94-.678.817-.817.678-.94.508-1.032.324-.6.092H8.763l-.616-.092L7.13,11.156l-.94-.508-.832-.663L4.68,9.153l-.539-.94L3.832,7.181l-.092-.57V5.486l.092-.57L4.141,3.9l.508-.94.678-.817.832-.693L7.13.941,8.147.632,8.763.54H9.888l.524.092,1.032.308.94.508.817.693.678.817.508.94.324,1.017.077.57Z" transform="translate(2.022 0.292)" fill="#888" stroke="#888" stroke-width="0.4"/>
      <path id="Path_80" data-name="Path 80" d="M33.035,5.528h0V5.035h0l-.277-.924V4.2l-.447-.832v.092l-.57-.647.077.077-.74-.6h.092l-.832-.462h.108l-.94-.277h.077l-.524.092H28.043l-.508.077h.092L26.687,2H26.8l-.832.462h.092l-.74.6.308-.247-.616.74.077-.092-.462.832V4.2l-.293.924h0v.493h0v.493h0v.493h0v.216l.293.94V7.654l.462.847-.077-.092.616.724h-.077l.724.6h-.077l.832.462h-.108l.94.293h-.092l.508.092h1.017l.493-.092h-.077l.94-.293h-.108l.832-.462h-.092l.74-.6-.077.092.6-.74v.092l.447-.847v.108l.277-.94V5.528Zm1.186.478v.555l-.092.57-.308,1.032-.508.94-.678.817L31.8,10.6l-.924.508-1.032.324H27.581l-1.032-.324-.94-.508-.817-.678L24.114,9.1l-.508-.94-.324-1.032-.092-.57V5.436l.092-.57.324-1.017.508-.94.678-.832.817-.678.94-.508.971-.308L28.09.49h1.125l.57.092,1.032.308.94.508.817.678.678.832.508.94.308,1.017.092.57Z" transform="translate(12.54 0.265)" fill="#888" stroke="#888" stroke-width="0.4"/>
      <rect id="Rectangle_52" data-name="Rectangle 52" width="1.171" height="17.518" transform="translate(10.724 33.295)" fill="#888" stroke="#888" stroke-width="0.4"/>
      <rect id="Rectangle_53" data-name="Rectangle 53" width="1.171" height="12.079" transform="translate(40.568 38.657)" fill="#888" stroke="#888" stroke-width="0.4"/>
      <path id="Path_81" data-name="Path 81" d="M34.309,24.62V37.285H22.43V24.62h1.156V36.7L23,36.114H33.724l-.585.585V24.62Z" transform="translate(12.776 14.037)" fill="#888" stroke="#888" stroke-width="0.4"/>
      <path id="Path_82" data-name="Path 82" d="M41.029,31.021h1.756l-.57.585V16.152l-.077-.832.015.123-.231-.755.046.108-.385-.678.062.092-.493-.585.077.077-.585-.493.092.062-.678-.354.092.046-.74-.231.123.015-.8-.077H28.688l-.724-.062-.709-.216-.663-.37-.524-.478-8.8-8.8h.817l-3.2,3.189V5.121L26.931,17.077l-2.2,20.107-.57-.647H41.907l-.57.678L38.3,17.37l1.14-.169,3.143,20.507H23.511l2.234-20.476.154.462L13.65,5.537,17.671,1.5l9.214,9.214L26.87,10.7l.462.431-.108-.092.539.308L27.64,11.3l.6.169-.108-.015.632.062H38.826l.878.077.847.262.786.416.678.57.57.663.431.786.262.863.092.909V32.192H41.029Z" transform="translate(8.028 1.535)" fill="#888" stroke="#888" stroke-width="0.4"/>
      <path id="Path_83" data-name="Path 83" d="M22.264,4.667l-5.685,5.7-.57.478-.663.354-.693.216-.693.062H4.638l-.817.077.123-.015-.755.231.092-.046-.678.354.092-.062-.585.493.077-.077-.493.585.077-.092L1.4,13.6l.046-.108-.231.755.031-.108-.092.817.015-.062V30.258l-.585-.585H5.069v1.156H0V14.866l.092-.894.262-.863.416-.786.555-.678L2,11.076l.786-.4.863-.277.909-.077h9.321l.6-.062-.123.031.585-.185-.092.046.539-.308-.092.077.508-.431-.046.031,5.685-5.67Z" transform="translate(0.647 2.806)" fill="#888" stroke="#888" stroke-width="0.4"/>
      <path id="Path_84" data-name="Path 84" d="M4.066,15.007V46.761l-.585-.585H14.774l-.585.585V14.606L23,5.87l.817.832-8.644,8.551.169-.4V47.331H2.91V15.007Z" transform="translate(2.221 3.898)" fill="#888" stroke="#888" stroke-width="0.4"/>
    </g>
  </g>
</svg>
