<svg xmlns="http://www.w3.org/2000/svg" xmlns:xlink="http://www.w3.org/1999/xlink" width="52" height="52" viewBox="0 0 52 52">
  <defs>
    <clipPath id="clip-path">
      <rect id="Rectangle_12" data-name="Rectangle 12" width="52" height="52" transform="translate(-0.42 -0.73)" fill="none"/>
    </clipPath>
    <clipPath id="clip-path-2">
      <rect id="Rectangle_11" data-name="Rectangle 11" width="52" height="52" fill="none"/>
    </clipPath>
  </defs>
  <g id="Win_room" transform="translate(0.42 0.73)" clip-path="url(#clip-path)">
    <g id="Group_14" data-name="Group 14" transform="translate(-0.42 -0.73)" clip-path="url(#clip-path-2)">
      <path id="Path_23" data-name="Path 23" d="M11.084,7.288h0V6.8h0L10.9,6.487h0l-.169-.462h0l-.431-.74v.092l-.616-.74v.077l-.755-.6H9.02l-.724-.4H8.4l-.955-.308H6.139l-.462.077h0l-.955.293h.108l-.878.462h.092l-.755.6V4.761l-.632.74.077-.092-.478.832h0l-.015.247h0L2.1,6.965h0l-.077.493v.724l.077.493h0l.139.478h0l.169.462V9.522l.478.847-.077-.092L3.442,11v-.077l.693.493H4.043l.878.462H4.813l.863.185h0l.508.077h.878l.493-.077h0l.955-.293H8.4l.878-.462H9.189l.755-.6V10.8l.616-.74v.092l.478-.847V9.4l.169-.462h0l.123-.478h0V7.966h0V7.458h0Zm1.186.478v.57l-.092.555-.139.524-.2.539-.524.924-.693.817-.847.678-1.017.508-1.048.308-.493.092H6.046l-.585-.092-1.048-.308-.971-.508-.847-.678L1.9,10.878l-.524-.924-.247-.539-.077-.524L.9,8.336V7.2l.154-.555.139-.524.2-.524.524-.924.678-.832.847-.663.971-.508,1.048-.324.585-.092H7.2l.585.092.971.324.971.493.847.678.693.832.524.924.2.524.139.524.092.555Z" transform="translate(0.487 1.217)" fill="#888" stroke="#888" stroke-width="0.3"/>
      <path id="Path_24" data-name="Path 24" d="M35.656,7.288h0L35.564,6.8h0l-.092-.308h0L35.3,6.025h0l-.478-.832v.092l-.616-.74v.077l-.77-.6h.108l-.878-.462h.108L32,3.406H30.279l-.971.354H29.4l-.863.462h.092l-.755.6.077-.077-.632.74V5.393l-.462.832h0l-.169.462v-.2l-.123.478h0v1.71h0l.123.478h0l.169.462V9.522l.462.847v-.092l.632.724-.077-.077.755.6h-.092l.863.462h-.092l.955.293h-.077l.508.077h.878l.493-.077h-.077l.971-.293h-.108l.878-.462h-.092l.755-.6v.092l.616-.74v.092l.478-.847v.092l.169-.462h0l.123-.478h0l.092-.493h0V7.673h0Zm1.186.478V8.891l-.154.524-.185.539-.524.924-.693.817-.847.678-.971.508-1.048.308-.585.092H30.68l-.585-.092-1.048-.308-.971-.508-.847-.678-.709-.817-.508-.924-.2-.539-.139-.524-.092-.555V7.2l.092-.555.139-.524.2-.524.508-.924.709-.832.847-.663.971-.508,1.048-.324.585-.092h1.156l.585.092,1.048.324.971.493.847.678.693.832.524.924.185.524.154.524V7.766Z" transform="translate(13.832 1.217)" fill="#888" stroke="#888" stroke-width="0.3"/>
      <path id="Path_25" data-name="Path 25" d="M23.34,5.757h0l-.077-.493h0L23.14,4.8h0L22.97,4.34v.092l-.462-.847v.092l-.431-.539.077.077-.832-.539h.092l-.878-.462h.092l-.955-.277h.077l-.508-.092H18.194l-.508.092h0l-.971.277h.108l-.6.462h.108l-.755.6h.077L15.02,4V3.909l-.478.847V4.663l-.169.462h0l-.123.462h0l.123.262v.4h0v.493h0l.092.493h0l.123.478h0l.169.462h0l.478.832V8.916l.632.74-.077-.077.755.6h-.108l.878.447h-.108l.971.277h0l.508.092h1.048l.508-.092h-.077l.955-.277-.585-.247.863-.447h-.092l.77-.6v.062l.632-.74v.092l.462-.832h0l.169-.462h0l.123-.478h0l.077-.493V5.757Zm1.186.478V6.79l-.092.555-.139.539-.2.524-.508.924-.709.832-.8.693-.971.508-1.048.324-.57.077H18.317l-.585-.077-1.048-.324-.971-.508-.832-.663-.709-.832-.524-.924-.185-.524-.154-.539V5.141l.154-.539.185-.508.524-.94.709-.817.832-.678.894-.524L17.655.827,18.24.75h1.171l.57.092,1.048.308L22,1.659l.847.678.709.817.508.94.2.508.139.539L24.5,5.7Z" transform="translate(7.197 0.406)" fill="#888" stroke="#888" stroke-width="0.3"/>
      <path id="Path_26" data-name="Path 26" d="M4.832,13.92l4.083,4.16L8.5,17.911H37.85l-.416.169L41.44,14l.832.817L38.1,19.066H8.252L4,14.737Z" transform="translate(2.81 8.652)" fill="#888" stroke="#888" stroke-width="0.3"/>
      <path id="Path_27" data-name="Path 27" d="M9.4,19.037v8.4l-.585-.57h5.793l.724.062.709.185.678.277.616.385.539.493.478.555.37.632.247.678,4.3,15.084H17.041L13.22,33.289l.555.416H4.561l-.909-.092-.863-.262L2,32.935l-.678-.57L.77,31.687l-.416-.77-.262-.863L0,29.144V13.259l.077-.74.231-.709.339-.647.462-.555.555-.462.647-.339.709-.231.74-.077H7.087l.724.077.724.2.647.37.508.478,5.624,5.516-.416-.154h6.656v4.977H20.4V16.557l.585.585H14.668L8.89,11.457l.015.015-.462-.416.108.077-.539-.308.123.046-.6-.169.108.015-.647-.062.062.015H3.775l.062-.015-.632.062.108-.015-.6.185.108-.031-.539.293.092-.062-.478.385.077-.077-.385.478.062-.092-.293.539.031-.092-.185.585.031-.108-.077.632.015-.062V29.114l-.015-.046.092.817-.031-.123.231.755L1.4,30.408l.37.693-.077-.108.493.6-.077-.077.585.478L2.6,31.933l.678.354-.092-.031.755.231-.123-.031.817.077h9.568l3.806,11.925-.555-.4h5.038l-.555.74L17.857,30.469l.015.062-.231-.616.046.092-.324-.555.062.077-.416-.493.062.077-.478-.431.077.062-.539-.339.077.046-.585-.262.092.031-.632-.154h.092l-.647-.046H8.243V19.037Z" transform="translate(0.647 6.262)" fill="#888" stroke="#888" stroke-width="0.3"/>
      <path id="Path_28" data-name="Path 28" d="M32.895,18.883V28.02H26.685l-.647.046h.092l-.616.154.092-.031-.6.262.077-.046-.524.339.077-.062-.493.431.062-.077-.4.493.062-.077-.324.555.031-.092-.231.616.015-.046L19.12,44.8l-.555-.74h5.115l-.555.4,3.652-11.925H36.5l.817-.077-.108.031.755-.231-.108.031.678-.354-.092.062.585-.478-.077.077.493-.6-.062.108.354-.693-.046.108.231-.755-.015.123.077-.817V13.336L39.92,12.7l.015.108-.185-.585.046.092L39.5,11.78l.046.092-.385-.478.092.077-.478-.385.077.062-.539-.293.108.031-.6-.185.123.015-.647-.062.062.015h-3.2l.062-.015-.647.062.108-.015-.6.169.123-.046-.524.308.092-.077-.462.416.015-.015-5.762,5.685H20.245l.585-.585v4.407H19.66V15.987h6.656l-.4.154,5.608-5.516.524-.478.647-.37.709-.2.724-.077h3.266l.724.077.709.231.647.339.57.462.447.57.354.632.231.709.062.74V29.144l-.092.909-.262.863-.4.77-.57.678-.678.57-.786.416-.863.262-.894.092h-9.4l.57-.416L24.112,45.214H17.78l4.468-15.084.262-.678.37-.632.462-.555.555-.493.616-.385.663-.277.724-.185.724-.062h5.7l-.585.57V18.883Z" transform="translate(10.261 6.262)" fill="#888" stroke="#888" stroke-width="0.3"/>
      <path id="Path_29" data-name="Path 29" d="M9.45,14.118v-1.14l.092-1,.308-.94.447-.863.632-.755.755-.616.863-.462.94-.293,1-.108,11.571.092.971.092.94.293.847.462.77.616.616.755.478.863.293.94.092.508.015.508v1.048H29.926v-1l-.031-.462.015.062-.077-.447.015.092-.262-.847.046.108-.416-.755.062.092-.555-.678.077.092-.678-.555.108.062-.77-.416.108.046-.832-.262.108.015-.878-.077h.062L14.5,9.111h.062l-.909.077.123-.015-.847.262.108-.046-.755.416.092-.077-.663.555.077-.077-.555.663.062-.092-.4.755.031-.092-.262.832.031-.108-.092.894v1.063Z" transform="translate(5.757 5.418)" fill="#888" stroke="#888" stroke-width="0.3"/>
    </g>
  </g>
</svg>
