<svg xmlns="http://www.w3.org/2000/svg" xmlns:xlink="http://www.w3.org/1999/xlink" width="52" height="52" viewBox="0 0 52 52">
  <defs>
    <clipPath id="clip-path">
      <rect id="Rectangle_40" data-name="Rectangle 40" width="52" height="52" transform="translate(-1.51 -0.42)" fill="none"/>
    </clipPath>
    <clipPath id="clip-path-2">
      <rect id="Rectangle_39" data-name="Rectangle 39" width="52" height="52" fill="none"/>
    </clipPath>
  </defs>
  <g id="Workforce_management" transform="translate(1.51 0.42)" clip-path="url(#clip-path)">
    <g id="Group_25" data-name="Group 25" transform="translate(-1.51 -0.42)" clip-path="url(#clip-path-2)">
      <path id="Path_53" data-name="Path 53" d="M13.449,6.375h0l-.077-.462h0l-.247-.724v.092l-.37-.77V4.6l-.57-.693.077.077-.678-.57h.092l-.786-.431H11l-.878-.277H8.58L7.7,2.986H7.81L7.024,3.4h.092l-.678.57V3.895l-.57.693V4.5l-.216.786V5.174l-.231.894v.37h0v.385h0V7.3h0v.277l.262.878V8.363l.416.786V9.056l.57.678h0l.678.57H7.271l.77.431H7.933L8.811,11h1.371l.878-.262h-.108l.786-.431-.154-.077.678-.57h-.077l.57-.678v.092l.37-.709v.108l.262-.863h0l.077-.462h0V6.822Zm1.217.447v.524l-.092.539-.293.971L13.8,9.75l-.678.77-.755.632-.909.493-.955.293H8.365l-.971-.293L6.5,11.152l-.77-.632-.647-.77-.478-.894-.293-.971L4.22,7.346V6.3l.092-.539.293-.971.478-.878.647-.786.77-.632.878-.478.971-.308.539-.077H9.952l.539.077.955.308.894.478.77.632.647.77.478.894.293.971.092.539Z" transform="translate(2.282 0.881)" fill="#888" stroke="#888" stroke-width="0.3"/>
      <path id="Path_54" data-name="Path 54" d="M3.756,12.21V41.577l-.585-.585h7.611v1.156H2.6V12.21Z" transform="translate(3.732 7.25)" fill="#888" stroke="#888" stroke-width="0.3"/>
      <rect id="Rectangle_36" data-name="Rectangle 36" width="1.171" height="14.791" transform="translate(11.124 34.02)" fill="#888" stroke="#888" stroke-width="0.3"/>
      <path id="Path_55" data-name="Path 55" d="M12.187,9.941H4.638l-.817.077.123-.031-.755.231.092-.031-.678.354L2.7,10.48l-.585.493.077-.092-.493.6.077-.108-.37.693.046-.108-.231.755.031-.123-.092.817.015-.046V28.63l-.585-.585,3.991.015v1.156H0V13.331l.092-.909.262-.863.416-.77.555-.693L2,9.54l.786-.416.863-.262.909-.092h7.627Z" transform="translate(2.327 5.389)" fill="#888" stroke="#888" stroke-width="0.3"/>
      <path id="Path_56" data-name="Path 56" d="M23.192,5.567h0V5.074h0L22.9,4.119v.123l-.462-.863v.092l-.555-.6.077.092L21.2,2.347H21.3l-.847-.462h.108L19.6,1.576h.092l-.508-.092H18.17l-.493.092h.077l-.94.308h.092l-.847.462h.092l-.74.616h.077l-.616.74V3.61l-.462.847V4.365L14.1,5.3h0l.293.324h0v.508h0v.508h0l.092.508V7.061L14.8,8V7.909l.462.847V8.664l.616.755h-.092l.755.6h-.092l.863.478h-.123l.955.293H20l.555-.647H20.45l.847-.478H21.22l.74-.6h-.077l.6-.74h0l.462-.863v.123l.293-.955V6.214h0V5.706h0Zm1.186.493v.57l-.092.57-.324,1.048-.524.94-.678.847-.847.678-.94.524-1.048.324-.57.092h-1.14l-.585-.092L16.6,11.237l-.955-.524-.832-.678-.693-.847-.508-.94L13.27,7.2V4.9l.339-1.032.493-1,.693-.832.832-.709.955-.508L17.615.482,18.2.39h1.14l.57.092,1.048.339.94.508.847.693.678.832.524.955.324,1.032.092.57Z" transform="translate(7.176 0.211)" fill="#888" stroke="#888" stroke-width="0.3"/>
      <rect id="Rectangle_37" data-name="Rectangle 37" width="1.171" height="12.079" transform="translate(25.361 38.734)" fill="#888" stroke="#888" stroke-width="0.3"/>
      <path id="Path_57" data-name="Path 57" d="M14.255,14.708,9.925,30.455,9.37,29.73H28.722l-.555.724L23.853,14.708l1.109-.308,4.53,16.486H8.6L13.13,14.4Z" transform="translate(6.977 8.434)" fill="#888" stroke="#888" stroke-width="0.3"/>
      <path id="Path_58" data-name="Path 58" d="M26.577,25.772h2l-.585.585V12.738l-.077-.817.031.108-.231-.74.031.092-.354-.678.062.092-.478-.585.077.077-.6-.493.108.077-.678-.37.092.046-.755-.231.123.015-.817-.077H13.358l-.817.077.123-.015-.755.231L12,9.5l-.678.37.108-.077-.6.493.077-.077-.478.585.062-.092-.37.678.046-.092-.231.74.031-.108-.092.817.015-.062V26.358l-.585-.585h2v1.171H8.72v-14.3l.092-.894.262-.863L9.49,10.1l.555-.678.693-.555.77-.416.863-.262.909-.092H24.605l.909.092.863.262.77.416.693.555.555.678.416.786.262.863.092.894v14.3H26.577Z" transform="translate(7.042 5.027)" fill="#888" stroke="#888" stroke-width="0.3"/>
      <path id="Path_59" data-name="Path 59" d="M23.29,24.73V37.379H11.58V24.73h1.156V36.794l-.585-.57H22.72l-.585.57V24.73Z" transform="translate(8.588 14.02)" fill="#888" stroke="#888" stroke-width="0.3"/>
      <path id="Path_60" data-name="Path 60" d="M32.034,6.375h0V5.913h0l-.262-.863v.108l-.431-.786v.092L30.8,3.91l.077.077-.678-.57h.092l-.786-.431H29.6l-.863-.277H27.211l-.878.277h.108l-.786.416h.092l-.693.57.077-.077-.493.709V4.511l-.4.77V5.174l-.277.878V7.577l.277.878V8.363l.431.786-.031-.092.57.678h-.077l.693.57h-.092l.786.431H26.41l.863.262h1.541l.863-.262h-.108l.8-.431h-.092l.678-.57h-.077l.57-.678v.092l.324-.786v.108l.262-.863h0V7.146h0v-.77Zm1.186.447v.524l-.077.539-.293.971-.508.894-.632.77-.77.632-.894.493-.971.293H26.949l-.971-.293-.878-.493-.786-.632-.632-.77-.478-.894L22.9,7.885l-.077-.539V6.3l.077-.539.308-.971.478-.878.632-.786.786-.632.878-.478.971-.308.539-.077h1.063l.524.077.971.308.894.478.77.632.632.77.493.894.293.971L33.2,6.3Z" transform="translate(12.34 0.881)" fill="#888" stroke="#888" stroke-width="0.3"/>
      <path id="Path_61" data-name="Path 61" d="M22.86,40.991h7.6l-.585.585V12.21h1.171V42.147H22.86Z" transform="translate(14.688 7.25)" fill="#888" stroke="#888" stroke-width="0.3"/>
      <rect id="Rectangle_38" data-name="Rectangle 38" width="1.171" height="14.791" transform="translate(39.767 34.02)" fill="#888" stroke="#888" stroke-width="0.3"/>
      <path id="Path_62" data-name="Path 62" d="M30.456,28.06h3.991l-.57.57V13.408l-.077-.817.015.123-.231-.755.046.108-.37-.693.077.108-.493-.6.077.092-.585-.493.092.062-.678-.354.108.031L31.1,9.987l.108.031-.817-.077H22.86V8.77h7.627l.894.092.863.262.786.416.678.57.555.678.416.77.262.863.092.909V29.216H30.456Z" transform="translate(14.688 5.389)" fill="#888" stroke="#888" stroke-width="0.3"/>
    </g>
  </g>
</svg>
